<svg width="230mm" height="95mm" viewBox="0 0 230 95" xmlns="http://www.w3.org/2000/svg"><g id="svgGroup" stroke-linecap="round" fill-rule="evenodd" font-size="9pt" stroke="#000" stroke-width="0.25mm" fill="none" style="stroke:#000;stroke-width:0.25mm;fill:none"><path d="M 0.5 95 L 94.5 95 A 0.5 0.5 0 0 0 95 94.5 L 95 0.5 A 0.5 0.5 0 0 0 94.5 0 L 0.5 0 A 0.5 0.5 0 0 0 0 0.5 L 0 94.5 A 0.5 0.5 0 0 0 0.5 95 Z M 135.5 95 L 229.5 95 A 0.5 0.5 0 0 0 230 94.5 L 230 0.5 A 0.5 0.5 0 0 0 229.5 0 L 135.5 0 A 0.5 0.5 0 0 0 135 0.5 L 135 94.5 A 0.5 0.5 0 0 0 135.5 95 Z" vector-effect="non-scaling-stroke"/></g></svg>