<svg width="199mm" height="94mm" viewBox="0 0 199 94" xmlns="http://www.w3.org/2000/svg"><g id="svgGroup" stroke-linecap="round" fill-rule="evenodd" font-size="9pt" stroke="#000" stroke-width="0.25mm" fill="none" style="stroke:#000;stroke-width:0.25mm;fill:none"><path d="M 0.5 94 L 17.5 94 A 0.5 0.5 0 0 0 18 93.5 L 18 76.5 A 0.5 0.5 0 0 0 17.5 76 L 0.5 76 A 0.5 0.5 0 0 0 0 76.5 L 0 93.5 A 0.5 0.5 0 0 0 0.5 94 Z M 0.5 75 L 17.5 75 A 0.5 0.5 0 0 0 18 74.5 L 18 57.5 A 0.5 0.5 0 0 0 17.5 57 L 0.5 57 A 0.5 0.5 0 0 0 0 57.5 L 0 74.5 A 0.5 0.5 0 0 0 0.5 75 Z M 0.5 56 L 17.5 56 A 0.5 0.5 0 0 0 18 55.5 L 18 38.5 A 0.5 0.5 0 0 0 17.5 38 L 0.5 38 A 0.5 0.5 0 0 0 0 38.5 L 0 55.5 A 0.5 0.5 0 0 0 0.5 56 Z M 0.5 37 L 17.5 37 A 0.5 0.5 0 0 0 18 36.5 L 18 19.5 A 0.5 0.5 0 0 0 17.5 19 L 0.5 19 A 0.5 0.5 0 0 0 0 19.5 L 0 36.5 A 0.5 0.5 0 0 0 0.5 37 Z M 0.5 18 L 17.5 18 A 0.5 0.5 0 0 0 18 17.5 L 18 0.5 A 0.5 0.5 0 0 0 17.5 0 L 0.5 0 A 0.5 0.5 0 0 0 0 0.5 L 0 17.5 A 0.5 0.5 0 0 0 0.5 18 Z M 19.5 94 L 36.5 94 A 0.5 0.5 0 0 0 37 93.5 L 37 76.5 A 0.5 0.5 0 0 0 36.5 76 L 19.5 76 A 0.5 0.5 0 0 0 19 76.5 L 19 93.5 A 0.5 0.5 0 0 0 19.5 94 Z M 19.5 75 L 36.5 75 A 0.5 0.5 0 0 0 37 74.5 L 37 57.5 A 0.5 0.5 0 0 0 36.5 57 L 19.5 57 A 0.5 0.5 0 0 0 19 57.5 L 19 74.5 A 0.5 0.5 0 0 0 19.5 75 Z M 19.5 56 L 36.5 56 A 0.5 0.5 0 0 0 37 55.5 L 37 38.5 A 0.5 0.5 0 0 0 36.5 38 L 19.5 38 A 0.5 0.5 0 0 0 19 38.5 L 19 55.5 A 0.5 0.5 0 0 0 19.5 56 Z M 19.5 37 L 36.5 37 A 0.5 0.5 0 0 0 37 36.5 L 37 19.5 A 0.5 0.5 0 0 0 36.5 19 L 19.5 19 A 0.5 0.5 0 0 0 19 19.5 L 19 36.5 A 0.5 0.5 0 0 0 19.5 37 Z M 19.5 18 L 36.5 18 A 0.5 0.5 0 0 0 37 17.5 L 37 0.5 A 0.5 0.5 0 0 0 36.5 0 L 19.5 0 A 0.5 0.5 0 0 0 19 0.5 L 19 17.5 A 0.5 0.5 0 0 0 19.5 18 Z M 181.5 94 L 198.5 94 A 0.5 0.5 0 0 0 199 93.5 L 199 76.5 A 0.5 0.5 0 0 0 198.5 76 L 181.5 76 A 0.5 0.5 0 0 0 181 76.5 L 181 93.5 A 0.5 0.5 0 0 0 181.5 94 Z M 181.5 75 L 198.5 75 A 0.5 0.5 0 0 0 199 74.5 L 199 57.5 A 0.5 0.5 0 0 0 198.5 57 L 181.5 57 A 0.5 0.5 0 0 0 181 57.5 L 181 74.5 A 0.5 0.5 0 0 0 181.5 75 Z M 181.5 56 L 198.5 56 A 0.5 0.5 0 0 0 199 55.5 L 199 38.5 A 0.5 0.5 0 0 0 198.5 38 L 181.5 38 A 0.5 0.5 0 0 0 181 38.5 L 181 55.5 A 0.5 0.5 0 0 0 181.5 56 Z M 181.5 37 L 198.5 37 A 0.5 0.5 0 0 0 199 36.5 L 199 19.5 A 0.5 0.5 0 0 0 198.5 19 L 181.5 19 A 0.5 0.5 0 0 0 181 19.5 L 181 36.5 A 0.5 0.5 0 0 0 181.5 37 Z M 181.5 18 L 198.5 18 A 0.5 0.5 0 0 0 199 17.5 L 199 0.5 A 0.5 0.5 0 0 0 198.5 0 L 181.5 0 A 0.5 0.5 0 0 0 181 0.5 L 181 17.5 A 0.5 0.5 0 0 0 181.5 18 Z M 162.5 94 L 179.5 94 A 0.5 0.5 0 0 0 180 93.5 L 180 76.5 A 0.5 0.5 0 0 0 179.5 76 L 162.5 76 A 0.5 0.5 0 0 0 162 76.5 L 162 93.5 A 0.5 0.5 0 0 0 162.5 94 Z M 162.5 75 L 179.5 75 A 0.5 0.5 0 0 0 180 74.5 L 180 57.5 A 0.5 0.5 0 0 0 179.5 57 L 162.5 57 A 0.5 0.5 0 0 0 162 57.5 L 162 74.5 A 0.5 0.5 0 0 0 162.5 75 Z M 162.5 56 L 179.5 56 A 0.5 0.5 0 0 0 180 55.5 L 180 38.5 A 0.5 0.5 0 0 0 179.5 38 L 162.5 38 A 0.5 0.5 0 0 0 162 38.5 L 162 55.5 A 0.5 0.5 0 0 0 162.5 56 Z M 162.5 37 L 179.5 37 A 0.5 0.5 0 0 0 180 36.5 L 180 19.5 A 0.5 0.5 0 0 0 179.5 19 L 162.5 19 A 0.5 0.5 0 0 0 162 19.5 L 162 36.5 A 0.5 0.5 0 0 0 162.5 37 Z M 162.5 18 L 179.5 18 A 0.5 0.5 0 0 0 180 17.5 L 180 0.5 A 0.5 0.5 0 0 0 179.5 0 L 162.5 0 A 0.5 0.5 0 0 0 162 0.5 L 162 17.5 A 0.5 0.5 0 0 0 162.5 18 Z" vector-effect="non-scaling-stroke"/></g></svg>