<svg width="229mm" height="94mm" viewBox="0 0 229 94" xmlns="http://www.w3.org/2000/svg"><g id="svgGroup" stroke-linecap="round" fill-rule="evenodd" font-size="9pt" stroke="#000" stroke-width="0.25mm" fill="none" style="stroke:#000;stroke-width:0.25mm;fill:none"><path d="M 0.5 94 L 17.5 94 A 0.5 0.5 0 0 0 18 93.5 L 18 76.5 A 0.5 0.5 0 0 0 17.5 76 L 0.5 76 A 0.5 0.5 0 0 0 0 76.5 L 0 93.5 A 0.5 0.5 0 0 0 0.5 94 Z M 0.5 75 L 17.5 75 A 0.5 0.5 0 0 0 18 74.5 L 18 57.5 A 0.5 0.5 0 0 0 17.5 57 L 0.5 57 A 0.5 0.5 0 0 0 0 57.5 L 0 74.5 A 0.5 0.5 0 0 0 0.5 75 Z M 0.5 56 L 17.5 56 A 0.5 0.5 0 0 0 18 55.5 L 18 38.5 A 0.5 0.5 0 0 0 17.5 38 L 0.5 38 A 0.5 0.5 0 0 0 0 38.5 L 0 55.5 A 0.5 0.5 0 0 0 0.5 56 Z M 0.5 37 L 17.5 37 A 0.5 0.5 0 0 0 18 36.5 L 18 19.5 A 0.5 0.5 0 0 0 17.5 19 L 0.5 19 A 0.5 0.5 0 0 0 0 19.5 L 0 36.5 A 0.5 0.5 0 0 0 0.5 37 Z M 0.5 18 L 17.5 18 A 0.5 0.5 0 0 0 18 17.5 L 18 0.5 A 0.5 0.5 0 0 0 17.5 0 L 0.5 0 A 0.5 0.5 0 0 0 0 0.5 L 0 17.5 A 0.5 0.5 0 0 0 0.5 18 Z M 19.5 94 L 36.5 94 A 0.5 0.5 0 0 0 37 93.5 L 37 76.5 A 0.5 0.5 0 0 0 36.5 76 L 19.5 76 A 0.5 0.5 0 0 0 19 76.5 L 19 93.5 A 0.5 0.5 0 0 0 19.5 94 Z M 19.5 75 L 36.5 75 A 0.5 0.5 0 0 0 37 74.5 L 37 57.5 A 0.5 0.5 0 0 0 36.5 57 L 19.5 57 A 0.5 0.5 0 0 0 19 57.5 L 19 74.5 A 0.5 0.5 0 0 0 19.5 75 Z M 19.5 56 L 36.5 56 A 0.5 0.5 0 0 0 37 55.5 L 37 38.5 A 0.5 0.5 0 0 0 36.5 38 L 19.5 38 A 0.5 0.5 0 0 0 19 38.5 L 19 55.5 A 0.5 0.5 0 0 0 19.5 56 Z M 19.5 37 L 36.5 37 A 0.5 0.5 0 0 0 37 36.5 L 37 19.5 A 0.5 0.5 0 0 0 36.5 19 L 19.5 19 A 0.5 0.5 0 0 0 19 19.5 L 19 36.5 A 0.5 0.5 0 0 0 19.5 37 Z M 19.5 18 L 36.5 18 A 0.5 0.5 0 0 0 37 17.5 L 37 0.5 A 0.5 0.5 0 0 0 36.5 0 L 19.5 0 A 0.5 0.5 0 0 0 19 0.5 L 19 17.5 A 0.5 0.5 0 0 0 19.5 18 Z M 211.5 94 L 228.5 94 A 0.5 0.5 0 0 0 229 93.5 L 229 76.5 A 0.5 0.5 0 0 0 228.5 76 L 211.5 76 A 0.5 0.5 0 0 0 211 76.5 L 211 93.5 A 0.5 0.5 0 0 0 211.5 94 Z M 211.5 75 L 228.5 75 A 0.5 0.5 0 0 0 229 74.5 L 229 57.5 A 0.5 0.5 0 0 0 228.5 57 L 211.5 57 A 0.5 0.5 0 0 0 211 57.5 L 211 74.5 A 0.5 0.5 0 0 0 211.5 75 Z M 211.5 56 L 228.5 56 A 0.5 0.5 0 0 0 229 55.5 L 229 38.5 A 0.5 0.5 0 0 0 228.5 38 L 211.5 38 A 0.5 0.5 0 0 0 211 38.5 L 211 55.5 A 0.5 0.5 0 0 0 211.5 56 Z M 211.5 37 L 228.5 37 A 0.5 0.5 0 0 0 229 36.5 L 229 19.5 A 0.5 0.5 0 0 0 228.5 19 L 211.5 19 A 0.5 0.5 0 0 0 211 19.5 L 211 36.5 A 0.5 0.5 0 0 0 211.5 37 Z M 211.5 18 L 228.5 18 A 0.5 0.5 0 0 0 229 17.5 L 229 0.5 A 0.5 0.5 0 0 0 228.5 0 L 211.5 0 A 0.5 0.5 0 0 0 211 0.5 L 211 17.5 A 0.5 0.5 0 0 0 211.5 18 Z M 192.5 94 L 209.5 94 A 0.5 0.5 0 0 0 210 93.5 L 210 76.5 A 0.5 0.5 0 0 0 209.5 76 L 192.5 76 A 0.5 0.5 0 0 0 192 76.5 L 192 93.5 A 0.5 0.5 0 0 0 192.5 94 Z M 192.5 75 L 209.5 75 A 0.5 0.5 0 0 0 210 74.5 L 210 57.5 A 0.5 0.5 0 0 0 209.5 57 L 192.5 57 A 0.5 0.5 0 0 0 192 57.5 L 192 74.5 A 0.5 0.5 0 0 0 192.5 75 Z M 192.5 56 L 209.5 56 A 0.5 0.5 0 0 0 210 55.5 L 210 38.5 A 0.5 0.5 0 0 0 209.5 38 L 192.5 38 A 0.5 0.5 0 0 0 192 38.5 L 192 55.5 A 0.5 0.5 0 0 0 192.5 56 Z M 192.5 37 L 209.5 37 A 0.5 0.5 0 0 0 210 36.5 L 210 19.5 A 0.5 0.5 0 0 0 209.5 19 L 192.5 19 A 0.5 0.5 0 0 0 192 19.5 L 192 36.5 A 0.5 0.5 0 0 0 192.5 37 Z M 192.5 18 L 209.5 18 A 0.5 0.5 0 0 0 210 17.5 L 210 0.5 A 0.5 0.5 0 0 0 209.5 0 L 192.5 0 A 0.5 0.5 0 0 0 192 0.5 L 192 17.5 A 0.5 0.5 0 0 0 192.5 18 Z" vector-effect="non-scaling-stroke"/></g></svg>