0
SECTION
2
HEADER
9
$INSUNITS
70
4
0
ENDSEC
0
SECTION
2
TABLES
0
TABLE
2
LTYPE
0
LTYPE
72
65
70
64
2
CONTINUOUS
3
______
73
0
40
0
0
ENDTAB
0
TABLE
2
LAYER
0
ENDTAB
0
ENDSEC
0
SECTION
2
ENTITIES
0
LINE
8
0
10
53.5
20
-147
11
70.5
21
-147
0
LINE
8
0
10
71
20
-146.5
11
71
21
-129.5
0
LINE
8
0
10
70.5
20
-129
11
53.5
21
-129
0
LINE
8
0
10
53
20
-129.5
11
53
21
-146.5
0
LINE
8
0
10
53.5
20
-128
11
70.5
21
-128
0
LINE
8
0
10
71
20
-127.5
11
71
21
-110.5
0
LINE
8
0
10
70.5
20
-110
11
53.5
21
-110
0
LINE
8
0
10
53
20
-110.5
11
53
21
-127.5
0
LINE
8
0
10
53.5
20
-109
11
70.5
21
-109
0
LINE
8
0
10
71
20
-108.5
11
71
21
-91.5
0
LINE
8
0
10
70.5
20
-91
11
53.5
21
-91
0
LINE
8
0
10
53
20
-91.5
11
53
21
-108.5
0
LINE
8
0
10
53.5
20
-90
11
70.5
21
-90
0
LINE
8
0
10
71
20
-89.5
11
71
21
-72.5
0
LINE
8
0
10
70.5
20
-72
11
53.5
21
-72
0
LINE
8
0
10
53
20
-72.5
11
53
21
-89.5
0
LINE
8
0
10
53.5
20
-71
11
70.5
21
-71
0
LINE
8
0
10
71
20
-70.5
11
71
21
-53.5
0
LINE
8
0
10
70.5
20
-53
11
53.5
21
-53
0
LINE
8
0
10
53
20
-53.5
11
53
21
-70.5
0
LINE
8
0
10
72.5
20
-147
11
89.5
21
-147
0
LINE
8
0
10
90
20
-146.5
11
90
21
-129.5
0
LINE
8
0
10
89.5
20
-129
11
72.5
21
-129
0
LINE
8
0
10
72
20
-129.5
11
72
21
-146.5
0
LINE
8
0
10
72.5
20
-128
11
89.5
21
-128
0
LINE
8
0
10
90
20
-127.5
11
90
21
-110.5
0
LINE
8
0
10
89.5
20
-110
11
72.5
21
-110
0
LINE
8
0
10
72
20
-110.5
11
72
21
-127.5
0
LINE
8
0
10
72.5
20
-109
11
89.5
21
-109
0
LINE
8
0
10
90
20
-108.5
11
90
21
-91.5
0
LINE
8
0
10
89.5
20
-91
11
72.5
21
-91
0
LINE
8
0
10
72
20
-91.5
11
72
21
-108.5
0
LINE
8
0
10
72.5
20
-90
11
89.5
21
-90
0
LINE
8
0
10
90
20
-89.5
11
90
21
-72.5
0
LINE
8
0
10
89.5
20
-72
11
72.5
21
-72
0
LINE
8
0
10
72
20
-72.5
11
72
21
-89.5
0
LINE
8
0
10
72.5
20
-71
11
89.5
21
-71
0
LINE
8
0
10
90
20
-70.5
11
90
21
-53.5
0
LINE
8
0
10
89.5
20
-53
11
72.5
21
-53
0
LINE
8
0
10
72
20
-53.5
11
72
21
-70.5
0
ARC
8
0
10
70.5
20
-146.5
40
0.5
50
270
51
0
0
ARC
8
0
10
70.5
20
-129.5
40
0.5
50
0
51
90
0
ARC
8
0
10
53.5
20
-129.5
40
0.5
50
90
51
180
0
ARC
8
0
10
53.5
20
-146.5
40
0.5
50
180
51
270
0
ARC
8
0
10
70.5
20
-127.5
40
0.5
50
270
51
0
0
ARC
8
0
10
70.5
20
-110.5
40
0.5
50
0
51
90
0
ARC
8
0
10
53.5
20
-110.5
40
0.5
50
90
51
180
0
ARC
8
0
10
53.5
20
-127.5
40
0.5
50
180
51
270
0
ARC
8
0
10
70.5
20
-108.5
40
0.5
50
270
51
0
0
ARC
8
0
10
70.5
20
-91.5
40
0.5
50
0
51
90
0
ARC
8
0
10
53.5
20
-91.5
40
0.5
50
90
51
180
0
ARC
8
0
10
53.5
20
-108.5
40
0.5
50
180
51
270
0
ARC
8
0
10
70.5
20
-89.5
40
0.5
50
270
51
0
0
ARC
8
0
10
70.5
20
-72.5
40
0.5
50
0
51
90
0
ARC
8
0
10
53.5
20
-72.5
40
0.5
50
90
51
180
0
ARC
8
0
10
53.5
20
-89.5
40
0.5
50
180
51
270
0
ARC
8
0
10
70.5
20
-70.5
40
0.5
50
270
51
0
0
ARC
8
0
10
70.5
20
-53.5
40
0.5
50
0
51
90
0
ARC
8
0
10
53.5
20
-53.5
40
0.5
50
90
51
180
0
ARC
8
0
10
53.5
20
-70.5
40
0.5
50
180
51
270
0
ARC
8
0
10
89.5
20
-146.5
40
0.5
50
270
51
0
0
ARC
8
0
10
89.5
20
-129.5
40
0.5
50
0
51
90
0
ARC
8
0
10
72.5
20
-129.5
40
0.5
50
90
51
180
0
ARC
8
0
10
72.5
20
-146.5
40
0.5
50
180
51
270
0
ARC
8
0
10
89.5
20
-127.5
40
0.5
50
270
51
0
0
ARC
8
0
10
89.5
20
-110.5
40
0.5
50
0
51
90
0
ARC
8
0
10
72.5
20
-110.5
40
0.5
50
90
51
180
0
ARC
8
0
10
72.5
20
-127.5
40
0.5
50
180
51
270
0
ARC
8
0
10
89.5
20
-108.5
40
0.5
50
270
51
0
0
ARC
8
0
10
89.5
20
-91.5
40
0.5
50
0
51
90
0
ARC
8
0
10
72.5
20
-91.5
40
0.5
50
90
51
180
0
ARC
8
0
10
72.5
20
-108.5
40
0.5
50
180
51
270
0
ARC
8
0
10
89.5
20
-89.5
40
0.5
50
270
51
0
0
ARC
8
0
10
89.5
20
-72.5
40
0.5
50
0
51
90
0
ARC
8
0
10
72.5
20
-72.5
40
0.5
50
90
51
180
0
ARC
8
0
10
72.5
20
-89.5
40
0.5
50
180
51
270
0
ARC
8
0
10
89.5
20
-70.5
40
0.5
50
270
51
0
0
ARC
8
0
10
89.5
20
-53.5
40
0.5
50
0
51
90
0
ARC
8
0
10
72.5
20
-53.5
40
0.5
50
90
51
180
0
ARC
8
0
10
72.5
20
-70.5
40
0.5
50
180
51
270
0
ENDSEC
0
EOF