<svg width="200mm" height="95mm" viewBox="0 0 200 95" xmlns="http://www.w3.org/2000/svg"><g id="svgGroup" stroke-linecap="round" fill-rule="evenodd" font-size="9pt" stroke="#000" stroke-width="0.25mm" fill="none" style="stroke:#000;stroke-width:0.25mm;fill:none"><path d="M 0 95 L 95 95 L 95 0 L 0 0 L 0 95 Z M 105 95 L 200 95 L 200 0 L 105 0 L 105 95 Z M 19 95 19 0 M 0 76 95 76 M 0 57 95 57 M 0 38 95 38 M 0 19 95 19 M 38 95 38 0 M 57 95 57 0 M 76 95 76 0 M 105 76 200 76 M 181 95 181 0 M 105 57 200 57 M 105 38 200 38 M 105 19 200 19 M 162 95 162 0 M 143 95 143 0 M 124 95 124 0" vector-effect="non-scaling-stroke"/></g></svg>