0
SECTION
2
HEADER
9
$INSUNITS
70
4
0
ENDSEC
0
SECTION
2
TABLES
0
TABLE
2
LTYPE
0
LTYPE
72
65
70
64
2
CONTINUOUS
3
______
73
0
40
0
0
ENDTAB
0
TABLE
2
LAYER
0
ENDTAB
0
ENDSEC
0
SECTION
2
ENTITIES
0
LINE
8
0
10
52.5
20
-147.5
11
147.5
21
-147.5
0
LINE
8
0
10
147.5
20
-147.5
11
147.5
21
-52.5
0
LINE
8
0
10
52.5
20
-52.5
11
147.5
21
-52.5
0
LINE
8
0
10
52.5
20
-147.5
11
52.5
21
-52.5
0
LINE
8
0
10
157.5
20
-147.5
11
252.5
21
-147.5
0
LINE
8
0
10
252.5
20
-147.5
11
252.5
21
-52.5
0
LINE
8
0
10
157.5
20
-52.5
11
252.5
21
-52.5
0
LINE
8
0
10
157.5
20
-147.5
11
157.5
21
-52.5
0
ARC
8
0
10
147
20
-147
40
0.5
50
270
51
0
0
ARC
8
0
10
147
20
-53
40
0.5
50
0
51
90
0
ARC
8
0
10
53
20
-53
40
0.5
50
90
51
180
0
ARC
8
0
10
53
20
-147
40
0.5
50
180
51
270
0
ARC
8
0
10
252
20
-147
40
0.5
50
270
51
0
0
ARC
8
0
10
252
20
-53
40
0.5
50
0
51
90
0
ARC
8
0
10
158
20
-53
40
0.5
50
90
51
180
0
ARC
8
0
10
158
20
-147
40
0.5
50
180
51
270
0
LINE
8
0
10
59
20
-138.005
11
65
21
-138.005
0
LINE
8
0
10
65
20
-138.005
11
65
21
-137.995
0
LINE
8
0
10
65
20
-137.995
11
59
21
-137.995
0
LINE
8
0
10
59
20
-137.995
11
59
21
-138.005
0
LINE
8
0
10
59
20
-119.005
11
65
21
-119.005
0
LINE
8
0
10
65
20
-119.005
11
65
21
-118.995
0
LINE
8
0
10
65
20
-118.995
11
59
21
-118.995
0
LINE
8
0
10
59
20
-118.995
11
59
21
-119.005
0
LINE
8
0
10
59
20
-100.005
11
65
21
-100.005
0
LINE
8
0
10
65
20
-100.005
11
65
21
-99.995
0
LINE
8
0
10
65
20
-99.995
11
59
21
-99.995
0
LINE
8
0
10
59
20
-99.995
11
59
21
-100.005
0
LINE
8
0
10
59
20
-81.005
11
65
21
-81.005
0
LINE
8
0
10
65
20
-81.005
11
65
21
-80.995
0
LINE
8
0
10
65
20
-80.995
11
59
21
-80.995
0
LINE
8
0
10
59
20
-80.995
11
59
21
-81.005
0
LINE
8
0
10
59
20
-62.005
11
65
21
-62.005
0
LINE
8
0
10
65
20
-62.005
11
65
21
-61.995
0
LINE
8
0
10
65
20
-61.995
11
59
21
-61.995
0
LINE
8
0
10
59
20
-61.995
11
59
21
-62.005
0
LINE
8
0
10
78
20
-138.005
11
84
21
-138.005
0
LINE
8
0
10
84
20
-138.005
11
84
21
-137.995
0
LINE
8
0
10
84
20
-137.995
11
78
21
-137.995
0
LINE
8
0
10
78
20
-137.995
11
78
21
-138.005
0
LINE
8
0
10
78
20
-119.005
11
84
21
-119.005
0
LINE
8
0
10
84
20
-119.005
11
84
21
-118.995
0
LINE
8
0
10
84
20
-118.995
11
78
21
-118.995
0
LINE
8
0
10
78
20
-118.995
11
78
21
-119.005
0
LINE
8
0
10
78
20
-100.005
11
84
21
-100.005
0
LINE
8
0
10
84
20
-100.005
11
84
21
-99.995
0
LINE
8
0
10
84
20
-99.995
11
78
21
-99.995
0
LINE
8
0
10
78
20
-99.995
11
78
21
-100.005
0
LINE
8
0
10
78
20
-81.005
11
84
21
-81.005
0
LINE
8
0
10
84
20
-81.005
11
84
21
-80.995
0
LINE
8
0
10
84
20
-80.995
11
78
21
-80.995
0
LINE
8
0
10
78
20
-80.995
11
78
21
-81.005
0
LINE
8
0
10
78
20
-62.005
11
84
21
-62.005
0
LINE
8
0
10
84
20
-62.005
11
84
21
-61.995
0
LINE
8
0
10
84
20
-61.995
11
78
21
-61.995
0
LINE
8
0
10
78
20
-61.995
11
78
21
-62.005
0
LINE
8
0
10
97
20
-138.005
11
103
21
-138.005
0
LINE
8
0
10
103
20
-138.005
11
103
21
-137.995
0
LINE
8
0
10
103
20
-137.995
11
97
21
-137.995
0
LINE
8
0
10
97
20
-137.995
11
97
21
-138.005
0
LINE
8
0
10
97
20
-119.005
11
103
21
-119.005
0
LINE
8
0
10
103
20
-119.005
11
103
21
-118.995
0
LINE
8
0
10
103
20
-118.995
11
97
21
-118.995
0
LINE
8
0
10
97
20
-118.995
11
97
21
-119.005
0
LINE
8
0
10
97
20
-100.005
11
103
21
-100.005
0
LINE
8
0
10
103
20
-100.005
11
103
21
-99.995
0
LINE
8
0
10
103
20
-99.995
11
97
21
-99.995
0
LINE
8
0
10
97
20
-99.995
11
97
21
-100.005
0
LINE
8
0
10
97
20
-81.005
11
103
21
-81.005
0
LINE
8
0
10
103
20
-81.005
11
103
21
-80.995
0
LINE
8
0
10
103
20
-80.995
11
97
21
-80.995
0
LINE
8
0
10
97
20
-80.995
11
97
21
-81.005
0
LINE
8
0
10
97
20
-62.005
11
103
21
-62.005
0
LINE
8
0
10
103
20
-62.005
11
103
21
-61.995
0
LINE
8
0
10
103
20
-61.995
11
97
21
-61.995
0
LINE
8
0
10
97
20
-61.995
11
97
21
-62.005
0
LINE
8
0
10
116
20
-138.005
11
122
21
-138.005
0
LINE
8
0
10
122
20
-138.005
11
122
21
-137.995
0
LINE
8
0
10
122
20
-137.995
11
116
21
-137.995
0
LINE
8
0
10
116
20
-137.995
11
116
21
-138.005
0
LINE
8
0
10
116
20
-119.005
11
122
21
-119.005
0
LINE
8
0
10
122
20
-119.005
11
122
21
-118.995
0
LINE
8
0
10
122
20
-118.995
11
116
21
-118.995
0
LINE
8
0
10
116
20
-118.995
11
116
21
-119.005
0
LINE
8
0
10
116
20
-100.005
11
122
21
-100.005
0
LINE
8
0
10
122
20
-100.005
11
122
21
-99.995
0
LINE
8
0
10
122
20
-99.995
11
116
21
-99.995
0
LINE
8
0
10
116
20
-99.995
11
116
21
-100.005
0
LINE
8
0
10
116
20
-81.005
11
122
21
-81.005
0
LINE
8
0
10
122
20
-81.005
11
122
21
-80.995
0
LINE
8
0
10
122
20
-80.995
11
116
21
-80.995
0
LINE
8
0
10
116
20
-80.995
11
116
21
-81.005
0
LINE
8
0
10
116
20
-62.005
11
122
21
-62.005
0
LINE
8
0
10
122
20
-62.005
11
122
21
-61.995
0
LINE
8
0
10
122
20
-61.995
11
116
21
-61.995
0
LINE
8
0
10
116
20
-61.995
11
116
21
-62.005
0
LINE
8
0
10
135
20
-138.005
11
141
21
-138.005
0
LINE
8
0
10
141
20
-138.005
11
141
21
-137.995
0
LINE
8
0
10
141
20
-137.995
11
135
21
-137.995
0
LINE
8
0
10
135
20
-137.995
11
135
21
-138.005
0
LINE
8
0
10
135
20
-119.005
11
141
21
-119.005
0
LINE
8
0
10
141
20
-119.005
11
141
21
-118.995
0
LINE
8
0
10
141
20
-118.995
11
135
21
-118.995
0
LINE
8
0
10
135
20
-118.995
11
135
21
-119.005
0
LINE
8
0
10
135
20
-100.005
11
141
21
-100.005
0
LINE
8
0
10
141
20
-100.005
11
141
21
-99.995
0
LINE
8
0
10
141
20
-99.995
11
135
21
-99.995
0
LINE
8
0
10
135
20
-99.995
11
135
21
-100.005
0
LINE
8
0
10
135
20
-81.005
11
141
21
-81.005
0
LINE
8
0
10
141
20
-81.005
11
141
21
-80.995
0
LINE
8
0
10
141
20
-80.995
11
135
21
-80.995
0
LINE
8
0
10
135
20
-80.995
11
135
21
-81.005
0
LINE
8
0
10
135
20
-62.005
11
141
21
-62.005
0
LINE
8
0
10
141
20
-62.005
11
141
21
-61.995
0
LINE
8
0
10
141
20
-61.995
11
135
21
-61.995
0
LINE
8
0
10
135
20
-61.995
11
135
21
-62.005
0
LINE
8
0
10
240
20
-138.005
11
246
21
-138.005
0
LINE
8
0
10
246
20
-138.005
11
246
21
-137.995
0
LINE
8
0
10
246
20
-137.995
11
240
21
-137.995
0
LINE
8
0
10
240
20
-137.995
11
240
21
-138.005
0
LINE
8
0
10
240
20
-119.005
11
246
21
-119.005
0
LINE
8
0
10
246
20
-119.005
11
246
21
-118.995
0
LINE
8
0
10
246
20
-118.995
11
240
21
-118.995
0
LINE
8
0
10
240
20
-118.995
11
240
21
-119.005
0
LINE
8
0
10
240
20
-100.005
11
246
21
-100.005
0
LINE
8
0
10
246
20
-100.005
11
246
21
-99.995
0
LINE
8
0
10
246
20
-99.995
11
240
21
-99.995
0
LINE
8
0
10
240
20
-99.995
11
240
21
-100.005
0
LINE
8
0
10
240
20
-81.005
11
246
21
-81.005
0
LINE
8
0
10
246
20
-81.005
11
246
21
-80.995
0
LINE
8
0
10
246
20
-80.995
11
240
21
-80.995
0
LINE
8
0
10
240
20
-80.995
11
240
21
-81.005
0
LINE
8
0
10
240
20
-62.005
11
246
21
-62.005
0
LINE
8
0
10
246
20
-62.005
11
246
21
-61.995
0
LINE
8
0
10
246
20
-61.995
11
240
21
-61.995
0
LINE
8
0
10
240
20
-61.995
11
240
21
-62.005
0
LINE
8
0
10
221
20
-138.005
11
227
21
-138.005
0
LINE
8
0
10
227
20
-138.005
11
227
21
-137.995
0
LINE
8
0
10
227
20
-137.995
11
221
21
-137.995
0
LINE
8
0
10
221
20
-137.995
11
221
21
-138.005
0
LINE
8
0
10
221
20
-119.005
11
227
21
-119.005
0
LINE
8
0
10
227
20
-119.005
11
227
21
-118.995
0
LINE
8
0
10
227
20
-118.995
11
221
21
-118.995
0
LINE
8
0
10
221
20
-118.995
11
221
21
-119.005
0
LINE
8
0
10
221
20
-100.005
11
227
21
-100.005
0
LINE
8
0
10
227
20
-100.005
11
227
21
-99.995
0
LINE
8
0
10
227
20
-99.995
11
221
21
-99.995
0
LINE
8
0
10
221
20
-99.995
11
221
21
-100.005
0
LINE
8
0
10
221
20
-81.005
11
227
21
-81.005
0
LINE
8
0
10
227
20
-81.005
11
227
21
-80.995
0
LINE
8
0
10
227
20
-80.995
11
221
21
-80.995
0
LINE
8
0
10
221
20
-80.995
11
221
21
-81.005
0
LINE
8
0
10
221
20
-62.005
11
227
21
-62.005
0
LINE
8
0
10
227
20
-62.005
11
227
21
-61.995
0
LINE
8
0
10
227
20
-61.995
11
221
21
-61.995
0
LINE
8
0
10
221
20
-61.995
11
221
21
-62.005
0
LINE
8
0
10
202
20
-138.005
11
208
21
-138.005
0
LINE
8
0
10
208
20
-138.005
11
208
21
-137.995
0
LINE
8
0
10
208
20
-137.995
11
202
21
-137.995
0
LINE
8
0
10
202
20
-137.995
11
202
21
-138.005
0
LINE
8
0
10
202
20
-119.005
11
208
21
-119.005
0
LINE
8
0
10
208
20
-119.005
11
208
21
-118.995
0
LINE
8
0
10
208
20
-118.995
11
202
21
-118.995
0
LINE
8
0
10
202
20
-118.995
11
202
21
-119.005
0
LINE
8
0
10
202
20
-100.005
11
208
21
-100.005
0
LINE
8
0
10
208
20
-100.005
11
208
21
-99.995
0
LINE
8
0
10
208
20
-99.995
11
202
21
-99.995
0
LINE
8
0
10
202
20
-99.995
11
202
21
-100.005
0
LINE
8
0
10
202
20
-81.005
11
208
21
-81.005
0
LINE
8
0
10
208
20
-81.005
11
208
21
-80.995
0
LINE
8
0
10
208
20
-80.995
11
202
21
-80.995
0
LINE
8
0
10
202
20
-80.995
11
202
21
-81.005
0
LINE
8
0
10
202
20
-62.005
11
208
21
-62.005
0
LINE
8
0
10
208
20
-62.005
11
208
21
-61.995
0
LINE
8
0
10
208
20
-61.995
11
202
21
-61.995
0
LINE
8
0
10
202
20
-61.995
11
202
21
-62.005
0
LINE
8
0
10
183
20
-138.005
11
189
21
-138.005
0
LINE
8
0
10
189
20
-138.005
11
189
21
-137.995
0
LINE
8
0
10
189
20
-137.995
11
183
21
-137.995
0
LINE
8
0
10
183
20
-137.995
11
183
21
-138.005
0
LINE
8
0
10
183
20
-119.005
11
189
21
-119.005
0
LINE
8
0
10
189
20
-119.005
11
189
21
-118.995
0
LINE
8
0
10
189
20
-118.995
11
183
21
-118.995
0
LINE
8
0
10
183
20
-118.995
11
183
21
-119.005
0
LINE
8
0
10
183
20
-100.005
11
189
21
-100.005
0
LINE
8
0
10
189
20
-100.005
11
189
21
-99.995
0
LINE
8
0
10
189
20
-99.995
11
183
21
-99.995
0
LINE
8
0
10
183
20
-99.995
11
183
21
-100.005
0
LINE
8
0
10
183
20
-81.005
11
189
21
-81.005
0
LINE
8
0
10
189
20
-81.005
11
189
21
-80.995
0
LINE
8
0
10
189
20
-80.995
11
183
21
-80.995
0
LINE
8
0
10
183
20
-80.995
11
183
21
-81.005
0
LINE
8
0
10
183
20
-62.005
11
189
21
-62.005
0
LINE
8
0
10
189
20
-62.005
11
189
21
-61.995
0
LINE
8
0
10
189
20
-61.995
11
183
21
-61.995
0
LINE
8
0
10
183
20
-61.995
11
183
21
-62.005
0
LINE
8
0
10
164
20
-138.005
11
170
21
-138.005
0
LINE
8
0
10
170
20
-138.005
11
170
21
-137.995
0
LINE
8
0
10
170
20
-137.995
11
164
21
-137.995
0
LINE
8
0
10
164
20
-137.995
11
164
21
-138.005
0
LINE
8
0
10
164
20
-119.005
11
170
21
-119.005
0
LINE
8
0
10
170
20
-119.005
11
170
21
-118.995
0
LINE
8
0
10
170
20
-118.995
11
164
21
-118.995
0
LINE
8
0
10
164
20
-118.995
11
164
21
-119.005
0
LINE
8
0
10
164
20
-100.005
11
170
21
-100.005
0
LINE
8
0
10
170
20
-100.005
11
170
21
-99.995
0
LINE
8
0
10
170
20
-99.995
11
164
21
-99.995
0
LINE
8
0
10
164
20
-99.995
11
164
21
-100.005
0
LINE
8
0
10
164
20
-81.005
11
170
21
-81.005
0
LINE
8
0
10
170
20
-81.005
11
170
21
-80.995
0
LINE
8
0
10
170
20
-80.995
11
164
21
-80.995
0
LINE
8
0
10
164
20
-80.995
11
164
21
-81.005
0
LINE
8
0
10
164
20
-62.005
11
170
21
-62.005
0
LINE
8
0
10
170
20
-62.005
11
170
21
-61.995
0
LINE
8
0
10
170
20
-61.995
11
164
21
-61.995
0
LINE
8
0
10
164
20
-61.995
11
164
21
-62.005
0
LINE
8
0
10
61.995
20
-140
11
62.005
21
-140
0
LINE
8
0
10
62.005
20
-140
11
62.005
21
-136
0
LINE
8
0
10
62.005
20
-136
11
61.995
21
-136
0
LINE
8
0
10
61.995
20
-136
11
61.995
21
-140
0
LINE
8
0
10
61.995
20
-121
11
62.005
21
-121
0
LINE
8
0
10
62.005
20
-121
11
62.005
21
-117
0
LINE
8
0
10
62.005
20
-117
11
61.995
21
-117
0
LINE
8
0
10
61.995
20
-117
11
61.995
21
-121
0
LINE
8
0
10
61.995
20
-102
11
62.005
21
-102
0
LINE
8
0
10
62.005
20
-102
11
62.005
21
-98
0
LINE
8
0
10
62.005
20
-98
11
61.995
21
-98
0
LINE
8
0
10
61.995
20
-98
11
61.995
21
-102
0
LINE
8
0
10
61.995
20
-83
11
62.005
21
-83
0
LINE
8
0
10
62.005
20
-83
11
62.005
21
-79
0
LINE
8
0
10
62.005
20
-79
11
61.995
21
-79
0
LINE
8
0
10
61.995
20
-79
11
61.995
21
-83
0
LINE
8
0
10
61.995
20
-64
11
62.005
21
-64
0
LINE
8
0
10
62.005
20
-64
11
62.005
21
-60
0
LINE
8
0
10
62.005
20
-60
11
61.995
21
-60
0
LINE
8
0
10
61.995
20
-60
11
61.995
21
-64
0
LINE
8
0
10
80.995
20
-140
11
81.005
21
-140
0
LINE
8
0
10
81.005
20
-140
11
81.005
21
-136
0
LINE
8
0
10
81.005
20
-136
11
80.995
21
-136
0
LINE
8
0
10
80.995
20
-136
11
80.995
21
-140
0
LINE
8
0
10
80.995
20
-121
11
81.005
21
-121
0
LINE
8
0
10
81.005
20
-121
11
81.005
21
-117
0
LINE
8
0
10
81.005
20
-117
11
80.995
21
-117
0
LINE
8
0
10
80.995
20
-117
11
80.995
21
-121
0
LINE
8
0
10
80.995
20
-102
11
81.005
21
-102
0
LINE
8
0
10
81.005
20
-102
11
81.005
21
-98
0
LINE
8
0
10
81.005
20
-98
11
80.995
21
-98
0
LINE
8
0
10
80.995
20
-98
11
80.995
21
-102
0
LINE
8
0
10
80.995
20
-83
11
81.005
21
-83
0
LINE
8
0
10
81.005
20
-83
11
81.005
21
-79
0
LINE
8
0
10
81.005
20
-79
11
80.995
21
-79
0
LINE
8
0
10
80.995
20
-79
11
80.995
21
-83
0
LINE
8
0
10
80.995
20
-64
11
81.005
21
-64
0
LINE
8
0
10
81.005
20
-64
11
81.005
21
-60
0
LINE
8
0
10
81.005
20
-60
11
80.995
21
-60
0
LINE
8
0
10
80.995
20
-60
11
80.995
21
-64
0
LINE
8
0
10
99.995
20
-140
11
100.005
21
-140
0
LINE
8
0
10
100.005
20
-140
11
100.005
21
-136
0
LINE
8
0
10
100.005
20
-136
11
99.995
21
-136
0
LINE
8
0
10
99.995
20
-136
11
99.995
21
-140
0
LINE
8
0
10
99.995
20
-121
11
100.005
21
-121
0
LINE
8
0
10
100.005
20
-121
11
100.005
21
-117
0
LINE
8
0
10
100.005
20
-117
11
99.995
21
-117
0
LINE
8
0
10
99.995
20
-117
11
99.995
21
-121
0
LINE
8
0
10
99.995
20
-102
11
100.005
21
-102
0
LINE
8
0
10
100.005
20
-102
11
100.005
21
-98
0
LINE
8
0
10
100.005
20
-98
11
99.995
21
-98
0
LINE
8
0
10
99.995
20
-98
11
99.995
21
-102
0
LINE
8
0
10
99.995
20
-83
11
100.005
21
-83
0
LINE
8
0
10
100.005
20
-83
11
100.005
21
-79
0
LINE
8
0
10
100.005
20
-79
11
99.995
21
-79
0
LINE
8
0
10
99.995
20
-79
11
99.995
21
-83
0
LINE
8
0
10
99.995
20
-64
11
100.005
21
-64
0
LINE
8
0
10
100.005
20
-64
11
100.005
21
-60
0
LINE
8
0
10
100.005
20
-60
11
99.995
21
-60
0
LINE
8
0
10
99.995
20
-60
11
99.995
21
-64
0
LINE
8
0
10
118.995
20
-140
11
119.005
21
-140
0
LINE
8
0
10
119.005
20
-140
11
119.005
21
-136
0
LINE
8
0
10
119.005
20
-136
11
118.995
21
-136
0
LINE
8
0
10
118.995
20
-136
11
118.995
21
-140
0
LINE
8
0
10
118.995
20
-121
11
119.005
21
-121
0
LINE
8
0
10
119.005
20
-121
11
119.005
21
-117
0
LINE
8
0
10
119.005
20
-117
11
118.995
21
-117
0
LINE
8
0
10
118.995
20
-117
11
118.995
21
-121
0
LINE
8
0
10
118.995
20
-102
11
119.005
21
-102
0
LINE
8
0
10
119.005
20
-102
11
119.005
21
-98
0
LINE
8
0
10
119.005
20
-98
11
118.995
21
-98
0
LINE
8
0
10
118.995
20
-98
11
118.995
21
-102
0
LINE
8
0
10
118.995
20
-83
11
119.005
21
-83
0
LINE
8
0
10
119.005
20
-83
11
119.005
21
-79
0
LINE
8
0
10
119.005
20
-79
11
118.995
21
-79
0
LINE
8
0
10
118.995
20
-79
11
118.995
21
-83
0
LINE
8
0
10
118.995
20
-64
11
119.005
21
-64
0
LINE
8
0
10
119.005
20
-64
11
119.005
21
-60
0
LINE
8
0
10
119.005
20
-60
11
118.995
21
-60
0
LINE
8
0
10
118.995
20
-60
11
118.995
21
-64
0
LINE
8
0
10
137.995
20
-140
11
138.005
21
-140
0
LINE
8
0
10
138.005
20
-140
11
138.005
21
-136
0
LINE
8
0
10
138.005
20
-136
11
137.995
21
-136
0
LINE
8
0
10
137.995
20
-136
11
137.995
21
-140
0
LINE
8
0
10
137.995
20
-121
11
138.005
21
-121
0
LINE
8
0
10
138.005
20
-121
11
138.005
21
-117
0
LINE
8
0
10
138.005
20
-117
11
137.995
21
-117
0
LINE
8
0
10
137.995
20
-117
11
137.995
21
-121
0
LINE
8
0
10
137.995
20
-102
11
138.005
21
-102
0
LINE
8
0
10
138.005
20
-102
11
138.005
21
-98
0
LINE
8
0
10
138.005
20
-98
11
137.995
21
-98
0
LINE
8
0
10
137.995
20
-98
11
137.995
21
-102
0
LINE
8
0
10
137.995
20
-83
11
138.005
21
-83
0
LINE
8
0
10
138.005
20
-83
11
138.005
21
-79
0
LINE
8
0
10
138.005
20
-79
11
137.995
21
-79
0
LINE
8
0
10
137.995
20
-79
11
137.995
21
-83
0
LINE
8
0
10
137.995
20
-64
11
138.005
21
-64
0
LINE
8
0
10
138.005
20
-64
11
138.005
21
-60
0
LINE
8
0
10
138.005
20
-60
11
137.995
21
-60
0
LINE
8
0
10
137.995
20
-60
11
137.995
21
-64
0
LINE
8
0
10
242.995
20
-140
11
243.005
21
-140
0
LINE
8
0
10
243.005
20
-140
11
243.005
21
-136
0
LINE
8
0
10
243.005
20
-136
11
242.995
21
-136
0
LINE
8
0
10
242.995
20
-136
11
242.995
21
-140
0
LINE
8
0
10
242.995
20
-121
11
243.005
21
-121
0
LINE
8
0
10
243.005
20
-121
11
243.005
21
-117
0
LINE
8
0
10
243.005
20
-117
11
242.995
21
-117
0
LINE
8
0
10
242.995
20
-117
11
242.995
21
-121
0
LINE
8
0
10
242.995
20
-102
11
243.005
21
-102
0
LINE
8
0
10
243.005
20
-102
11
243.005
21
-98
0
LINE
8
0
10
243.005
20
-98
11
242.995
21
-98
0
LINE
8
0
10
242.995
20
-98
11
242.995
21
-102
0
LINE
8
0
10
242.995
20
-83
11
243.005
21
-83
0
LINE
8
0
10
243.005
20
-83
11
243.005
21
-79
0
LINE
8
0
10
243.005
20
-79
11
242.995
21
-79
0
LINE
8
0
10
242.995
20
-79
11
242.995
21
-83
0
LINE
8
0
10
242.995
20
-64
11
243.005
21
-64
0
LINE
8
0
10
243.005
20
-64
11
243.005
21
-60
0
LINE
8
0
10
243.005
20
-60
11
242.995
21
-60
0
LINE
8
0
10
242.995
20
-60
11
242.995
21
-64
0
LINE
8
0
10
223.995
20
-140
11
224.005
21
-140
0
LINE
8
0
10
224.005
20
-140
11
224.005
21
-136
0
LINE
8
0
10
224.005
20
-136
11
223.995
21
-136
0
LINE
8
0
10
223.995
20
-136
11
223.995
21
-140
0
LINE
8
0
10
223.995
20
-121
11
224.005
21
-121
0
LINE
8
0
10
224.005
20
-121
11
224.005
21
-117
0
LINE
8
0
10
224.005
20
-117
11
223.995
21
-117
0
LINE
8
0
10
223.995
20
-117
11
223.995
21
-121
0
LINE
8
0
10
223.995
20
-102
11
224.005
21
-102
0
LINE
8
0
10
224.005
20
-102
11
224.005
21
-98
0
LINE
8
0
10
224.005
20
-98
11
223.995
21
-98
0
LINE
8
0
10
223.995
20
-98
11
223.995
21
-102
0
LINE
8
0
10
223.995
20
-83
11
224.005
21
-83
0
LINE
8
0
10
224.005
20
-83
11
224.005
21
-79
0
LINE
8
0
10
224.005
20
-79
11
223.995
21
-79
0
LINE
8
0
10
223.995
20
-79
11
223.995
21
-83
0
LINE
8
0
10
223.995
20
-64
11
224.005
21
-64
0
LINE
8
0
10
224.005
20
-64
11
224.005
21
-60
0
LINE
8
0
10
224.005
20
-60
11
223.995
21
-60
0
LINE
8
0
10
223.995
20
-60
11
223.995
21
-64
0
LINE
8
0
10
204.995
20
-140
11
205.005
21
-140
0
LINE
8
0
10
205.005
20
-140
11
205.005
21
-136
0
LINE
8
0
10
205.005
20
-136
11
204.995
21
-136
0
LINE
8
0
10
204.995
20
-136
11
204.995
21
-140
0
LINE
8
0
10
204.995
20
-121
11
205.005
21
-121
0
LINE
8
0
10
205.005
20
-121
11
205.005
21
-117
0
LINE
8
0
10
205.005
20
-117
11
204.995
21
-117
0
LINE
8
0
10
204.995
20
-117
11
204.995
21
-121
0
LINE
8
0
10
204.995
20
-102
11
205.005
21
-102
0
LINE
8
0
10
205.005
20
-102
11
205.005
21
-98
0
LINE
8
0
10
205.005
20
-98
11
204.995
21
-98
0
LINE
8
0
10
204.995
20
-98
11
204.995
21
-102
0
LINE
8
0
10
204.995
20
-83
11
205.005
21
-83
0
LINE
8
0
10
205.005
20
-83
11
205.005
21
-79
0
LINE
8
0
10
205.005
20
-79
11
204.995
21
-79
0
LINE
8
0
10
204.995
20
-79
11
204.995
21
-83
0
LINE
8
0
10
204.995
20
-64
11
205.005
21
-64
0
LINE
8
0
10
205.005
20
-64
11
205.005
21
-60
0
LINE
8
0
10
205.005
20
-60
11
204.995
21
-60
0
LINE
8
0
10
204.995
20
-60
11
204.995
21
-64
0
LINE
8
0
10
185.995
20
-140
11
186.005
21
-140
0
LINE
8
0
10
186.005
20
-140
11
186.005
21
-136
0
LINE
8
0
10
186.005
20
-136
11
185.995
21
-136
0
LINE
8
0
10
185.995
20
-136
11
185.995
21
-140
0
LINE
8
0
10
185.995
20
-121
11
186.005
21
-121
0
LINE
8
0
10
186.005
20
-121
11
186.005
21
-117
0
LINE
8
0
10
186.005
20
-117
11
185.995
21
-117
0
LINE
8
0
10
185.995
20
-117
11
185.995
21
-121
0
LINE
8
0
10
185.995
20
-102
11
186.005
21
-102
0
LINE
8
0
10
186.005
20
-102
11
186.005
21
-98
0
LINE
8
0
10
186.005
20
-98
11
185.995
21
-98
0
LINE
8
0
10
185.995
20
-98
11
185.995
21
-102
0
LINE
8
0
10
185.995
20
-83
11
186.005
21
-83
0
LINE
8
0
10
186.005
20
-83
11
186.005
21
-79
0
LINE
8
0
10
186.005
20
-79
11
185.995
21
-79
0
LINE
8
0
10
185.995
20
-79
11
185.995
21
-83
0
LINE
8
0
10
185.995
20
-64
11
186.005
21
-64
0
LINE
8
0
10
186.005
20
-64
11
186.005
21
-60
0
LINE
8
0
10
186.005
20
-60
11
185.995
21
-60
0
LINE
8
0
10
185.995
20
-60
11
185.995
21
-64
0
LINE
8
0
10
166.995
20
-140
11
167.005
21
-140
0
LINE
8
0
10
167.005
20
-140
11
167.005
21
-136
0
LINE
8
0
10
167.005
20
-136
11
166.995
21
-136
0
LINE
8
0
10
166.995
20
-136
11
166.995
21
-140
0
LINE
8
0
10
166.995
20
-121
11
167.005
21
-121
0
LINE
8
0
10
167.005
20
-121
11
167.005
21
-117
0
LINE
8
0
10
167.005
20
-117
11
166.995
21
-117
0
LINE
8
0
10
166.995
20
-117
11
166.995
21
-121
0
LINE
8
0
10
166.995
20
-102
11
167.005
21
-102
0
LINE
8
0
10
167.005
20
-102
11
167.005
21
-98
0
LINE
8
0
10
167.005
20
-98
11
166.995
21
-98
0
LINE
8
0
10
166.995
20
-98
11
166.995
21
-102
0
LINE
8
0
10
166.995
20
-83
11
167.005
21
-83
0
LINE
8
0
10
167.005
20
-83
11
167.005
21
-79
0
LINE
8
0
10
167.005
20
-79
11
166.995
21
-79
0
LINE
8
0
10
166.995
20
-79
11
166.995
21
-83
0
LINE
8
0
10
166.995
20
-64
11
167.005
21
-64
0
LINE
8
0
10
167.005
20
-64
11
167.005
21
-60
0
LINE
8
0
10
167.005
20
-60
11
166.995
21
-60
0
LINE
8
0
10
166.995
20
-60
11
166.995
21
-64
0
LINE
8
0
10
71.5
20
-147.5
11
71.5
21
-52.5
0
LINE
8
0
10
52.5
20
-128.5
11
147.5
21
-128.5
0
LINE
8
0
10
52.5
20
-109.5
11
147.5
21
-109.5
0
LINE
8
0
10
52.5
20
-90.5
11
147.5
21
-90.5
0
LINE
8
0
10
52.5
20
-71.5
11
147.5
21
-71.5
0
LINE
8
0
10
90.5
20
-147.5
11
90.5
21
-52.5
0
LINE
8
0
10
109.5
20
-147.5
11
109.5
21
-52.5
0
LINE
8
0
10
128.5
20
-147.5
11
128.5
21
-52.5
0
LINE
8
0
10
157.5
20
-128.5
11
252.5
21
-128.5
0
LINE
8
0
10
233.5
20
-147.5
11
233.5
21
-52.5
0
LINE
8
0
10
157.5
20
-109.5
11
252.5
21
-109.5
0
LINE
8
0
10
157.5
20
-90.5
11
252.5
21
-90.5
0
LINE
8
0
10
157.5
20
-71.5
11
252.5
21
-71.5
0
LINE
8
0
10
214.5
20
-147.5
11
214.5
21
-52.5
0
LINE
8
0
10
195.5
20
-147.5
11
195.5
21
-52.5
0
LINE
8
0
10
176.5
20
-147.5
11
176.5
21
-52.5
0
LINE
8
0
10
53.5
20
-147
11
70.5
21
-147
0
LINE
8
0
10
71
20
-146.5
11
71
21
-129.5
0
LINE
8
0
10
70.5
20
-129
11
53.5
21
-129
0
LINE
8
0
10
53
20
-129.5
11
53
21
-146.5
0
LINE
8
0
10
53.5
20
-128
11
70.5
21
-128
0
LINE
8
0
10
71
20
-127.5
11
71
21
-110.5
0
LINE
8
0
10
70.5
20
-110
11
53.5
21
-110
0
LINE
8
0
10
53
20
-110.5
11
53
21
-127.5
0
LINE
8
0
10
53.5
20
-109
11
70.5
21
-109
0
LINE
8
0
10
71
20
-108.5
11
71
21
-91.5
0
LINE
8
0
10
70.5
20
-91
11
53.5
21
-91
0
LINE
8
0
10
53
20
-91.5
11
53
21
-108.5
0
LINE
8
0
10
53.5
20
-90
11
70.5
21
-90
0
LINE
8
0
10
71
20
-89.5
11
71
21
-72.5
0
LINE
8
0
10
70.5
20
-72
11
53.5
21
-72
0
LINE
8
0
10
53
20
-72.5
11
53
21
-89.5
0
LINE
8
0
10
53.5
20
-71
11
70.5
21
-71
0
LINE
8
0
10
71
20
-70.5
11
71
21
-53.5
0
LINE
8
0
10
70.5
20
-53
11
53.5
21
-53
0
LINE
8
0
10
53
20
-53.5
11
53
21
-70.5
0
LINE
8
0
10
72.5
20
-147
11
89.5
21
-147
0
LINE
8
0
10
90
20
-146.5
11
90
21
-129.5
0
LINE
8
0
10
89.5
20
-129
11
72.5
21
-129
0
LINE
8
0
10
72
20
-129.5
11
72
21
-146.5
0
LINE
8
0
10
72.5
20
-128
11
89.5
21
-128
0
LINE
8
0
10
90
20
-127.5
11
90
21
-110.5
0
LINE
8
0
10
89.5
20
-110
11
72.5
21
-110
0
LINE
8
0
10
72
20
-110.5
11
72
21
-127.5
0
LINE
8
0
10
72.5
20
-109
11
89.5
21
-109
0
LINE
8
0
10
90
20
-108.5
11
90
21
-91.5
0
LINE
8
0
10
89.5
20
-91
11
72.5
21
-91
0
LINE
8
0
10
72
20
-91.5
11
72
21
-108.5
0
LINE
8
0
10
72.5
20
-90
11
89.5
21
-90
0
LINE
8
0
10
90
20
-89.5
11
90
21
-72.5
0
LINE
8
0
10
89.5
20
-72
11
72.5
21
-72
0
LINE
8
0
10
72
20
-72.5
11
72
21
-89.5
0
LINE
8
0
10
72.5
20
-71
11
89.5
21
-71
0
LINE
8
0
10
90
20
-70.5
11
90
21
-53.5
0
LINE
8
0
10
89.5
20
-53
11
72.5
21
-53
0
LINE
8
0
10
72
20
-53.5
11
72
21
-70.5
0
LINE
8
0
10
234.5
20
-147
11
251.5
21
-147
0
LINE
8
0
10
252
20
-146.5
11
252
21
-129.5
0
LINE
8
0
10
251.5
20
-129
11
234.5
21
-129
0
LINE
8
0
10
234
20
-129.5
11
234
21
-146.5
0
LINE
8
0
10
234.5
20
-128
11
251.5
21
-128
0
LINE
8
0
10
252
20
-127.5
11
252
21
-110.5
0
LINE
8
0
10
251.5
20
-110
11
234.5
21
-110
0
LINE
8
0
10
234
20
-110.5
11
234
21
-127.5
0
LINE
8
0
10
234.5
20
-109
11
251.5
21
-109
0
LINE
8
0
10
252
20
-108.5
11
252
21
-91.5
0
LINE
8
0
10
251.5
20
-91
11
234.5
21
-91
0
LINE
8
0
10
234
20
-91.5
11
234
21
-108.5
0
LINE
8
0
10
234.5
20
-90
11
251.5
21
-90
0
LINE
8
0
10
252
20
-89.5
11
252
21
-72.5
0
LINE
8
0
10
251.5
20
-72
11
234.5
21
-72
0
LINE
8
0
10
234
20
-72.5
11
234
21
-89.5
0
LINE
8
0
10
234.5
20
-71
11
251.5
21
-71
0
LINE
8
0
10
252
20
-70.5
11
252
21
-53.5
0
LINE
8
0
10
251.5
20
-53
11
234.5
21
-53
0
LINE
8
0
10
234
20
-53.5
11
234
21
-70.5
0
LINE
8
0
10
215.5
20
-147
11
232.5
21
-147
0
LINE
8
0
10
233
20
-146.5
11
233
21
-129.5
0
LINE
8
0
10
232.5
20
-129
11
215.5
21
-129
0
LINE
8
0
10
215
20
-129.5
11
215
21
-146.5
0
LINE
8
0
10
215.5
20
-128
11
232.5
21
-128
0
LINE
8
0
10
233
20
-127.5
11
233
21
-110.5
0
LINE
8
0
10
232.5
20
-110
11
215.5
21
-110
0
LINE
8
0
10
215
20
-110.5
11
215
21
-127.5
0
LINE
8
0
10
215.5
20
-109
11
232.5
21
-109
0
LINE
8
0
10
233
20
-108.5
11
233
21
-91.5
0
LINE
8
0
10
232.5
20
-91
11
215.5
21
-91
0
LINE
8
0
10
215
20
-91.5
11
215
21
-108.5
0
LINE
8
0
10
215.5
20
-90
11
232.5
21
-90
0
LINE
8
0
10
233
20
-89.5
11
233
21
-72.5
0
LINE
8
0
10
232.5
20
-72
11
215.5
21
-72
0
LINE
8
0
10
215
20
-72.5
11
215
21
-89.5
0
LINE
8
0
10
215.5
20
-71
11
232.5
21
-71
0
LINE
8
0
10
233
20
-70.5
11
233
21
-53.5
0
LINE
8
0
10
232.5
20
-53
11
215.5
21
-53
0
LINE
8
0
10
215
20
-53.5
11
215
21
-70.5
0
ARC
8
0
10
70.5
20
-146.5
40
0.5
50
270
51
0
0
ARC
8
0
10
70.5
20
-129.5
40
0.5
50
0
51
90
0
ARC
8
0
10
53.5
20
-129.5
40
0.5
50
90
51
180
0
ARC
8
0
10
53.5
20
-146.5
40
0.5
50
180
51
270
0
ARC
8
0
10
70.5
20
-127.5
40
0.5
50
270
51
0
0
ARC
8
0
10
70.5
20
-110.5
40
0.5
50
0
51
90
0
ARC
8
0
10
53.5
20
-110.5
40
0.5
50
90
51
180
0
ARC
8
0
10
53.5
20
-127.5
40
0.5
50
180
51
270
0
ARC
8
0
10
70.5
20
-108.5
40
0.5
50
270
51
0
0
ARC
8
0
10
70.5
20
-91.5
40
0.5
50
0
51
90
0
ARC
8
0
10
53.5
20
-91.5
40
0.5
50
90
51
180
0
ARC
8
0
10
53.5
20
-108.5
40
0.5
50
180
51
270
0
ARC
8
0
10
70.5
20
-89.5
40
0.5
50
270
51
0
0
ARC
8
0
10
70.5
20
-72.5
40
0.5
50
0
51
90
0
ARC
8
0
10
53.5
20
-72.5
40
0.5
50
90
51
180
0
ARC
8
0
10
53.5
20
-89.5
40
0.5
50
180
51
270
0
ARC
8
0
10
70.5
20
-70.5
40
0.5
50
270
51
0
0
ARC
8
0
10
70.5
20
-53.5
40
0.5
50
0
51
90
0
ARC
8
0
10
53.5
20
-53.5
40
0.5
50
90
51
180
0
ARC
8
0
10
53.5
20
-70.5
40
0.5
50
180
51
270
0
ARC
8
0
10
89.5
20
-146.5
40
0.5
50
270
51
0
0
ARC
8
0
10
89.5
20
-129.5
40
0.5
50
0
51
90
0
ARC
8
0
10
72.5
20
-129.5
40
0.5
50
90
51
180
0
ARC
8
0
10
72.5
20
-146.5
40
0.5
50
180
51
270
0
ARC
8
0
10
89.5
20
-127.5
40
0.5
50
270
51
0
0
ARC
8
0
10
89.5
20
-110.5
40
0.5
50
0
51
90
0
ARC
8
0
10
72.5
20
-110.5
40
0.5
50
90
51
180
0
ARC
8
0
10
72.5
20
-127.5
40
0.5
50
180
51
270
0
ARC
8
0
10
89.5
20
-108.5
40
0.5
50
270
51
0
0
ARC
8
0
10
89.5
20
-91.5
40
0.5
50
0
51
90
0
ARC
8
0
10
72.5
20
-91.5
40
0.5
50
90
51
180
0
ARC
8
0
10
72.5
20
-108.5
40
0.5
50
180
51
270
0
ARC
8
0
10
89.5
20
-89.5
40
0.5
50
270
51
0
0
ARC
8
0
10
89.5
20
-72.5
40
0.5
50
0
51
90
0
ARC
8
0
10
72.5
20
-72.5
40
0.5
50
90
51
180
0
ARC
8
0
10
72.5
20
-89.5
40
0.5
50
180
51
270
0
ARC
8
0
10
89.5
20
-70.5
40
0.5
50
270
51
0
0
ARC
8
0
10
89.5
20
-53.5
40
0.5
50
0
51
90
0
ARC
8
0
10
72.5
20
-53.5
40
0.5
50
90
51
180
0
ARC
8
0
10
72.5
20
-70.5
40
0.5
50
180
51
270
0
ARC
8
0
10
251.5
20
-146.5
40
0.5
50
270
51
0
0
ARC
8
0
10
251.5
20
-129.5
40
0.5
50
0
51
90
0
ARC
8
0
10
234.5
20
-129.5
40
0.5
50
90
51
180
0
ARC
8
0
10
234.5
20
-146.5
40
0.5
50
180
51
270
0
ARC
8
0
10
251.5
20
-127.5
40
0.5
50
270
51
0
0
ARC
8
0
10
251.5
20
-110.5
40
0.5
50
0
51
90
0
ARC
8
0
10
234.5
20
-110.5
40
0.5
50
90
51
180
0
ARC
8
0
10
234.5
20
-127.5
40
0.5
50
180
51
270
0
ARC
8
0
10
251.5
20
-108.5
40
0.5
50
270
51
0
0
ARC
8
0
10
251.5
20
-91.5
40
0.5
50
0
51
90
0
ARC
8
0
10
234.5
20
-91.5
40
0.5
50
90
51
180
0
ARC
8
0
10
234.5
20
-108.5
40
0.5
50
180
51
270
0
ARC
8
0
10
251.5
20
-89.5
40
0.5
50
270
51
0
0
ARC
8
0
10
251.5
20
-72.5
40
0.5
50
0
51
90
0
ARC
8
0
10
234.5
20
-72.5
40
0.5
50
90
51
180
0
ARC
8
0
10
234.5
20
-89.5
40
0.5
50
180
51
270
0
ARC
8
0
10
251.5
20
-70.5
40
0.5
50
270
51
0
0
ARC
8
0
10
251.5
20
-53.5
40
0.5
50
0
51
90
0
ARC
8
0
10
234.5
20
-53.5
40
0.5
50
90
51
180
0
ARC
8
0
10
234.5
20
-70.5
40
0.5
50
180
51
270
0
ARC
8
0
10
232.5
20
-146.5
40
0.5
50
270
51
0
0
ARC
8
0
10
232.5
20
-129.5
40
0.5
50
0
51
90
0
ARC
8
0
10
215.5
20
-129.5
40
0.5
50
90
51
180
0
ARC
8
0
10
215.5
20
-146.5
40
0.5
50
180
51
270
0
ARC
8
0
10
232.5
20
-127.5
40
0.5
50
270
51
0
0
ARC
8
0
10
232.5
20
-110.5
40
0.5
50
0
51
90
0
ARC
8
0
10
215.5
20
-110.5
40
0.5
50
90
51
180
0
ARC
8
0
10
215.5
20
-127.5
40
0.5
50
180
51
270
0
ARC
8
0
10
232.5
20
-108.5
40
0.5
50
270
51
0
0
ARC
8
0
10
232.5
20
-91.5
40
0.5
50
0
51
90
0
ARC
8
0
10
215.5
20
-91.5
40
0.5
50
90
51
180
0
ARC
8
0
10
215.5
20
-108.5
40
0.5
50
180
51
270
0
ARC
8
0
10
232.5
20
-89.5
40
0.5
50
270
51
0
0
ARC
8
0
10
232.5
20
-72.5
40
0.5
50
0
51
90
0
ARC
8
0
10
215.5
20
-72.5
40
0.5
50
90
51
180
0
ARC
8
0
10
215.5
20
-89.5
40
0.5
50
180
51
270
0
ARC
8
0
10
232.5
20
-70.5
40
0.5
50
270
51
0
0
ARC
8
0
10
232.5
20
-53.5
40
0.5
50
0
51
90
0
ARC
8
0
10
215.5
20
-53.5
40
0.5
50
90
51
180
0
ARC
8
0
10
215.5
20
-70.5
40
0.5
50
180
51
270
0
LINE
8
0
10
91
20
-86.5
11
109
21
-86.5
0
LINE
8
0
10
109
20
-86.5
11
109
21
-52.5
0
LINE
8
0
10
91
20
-52.5
11
91
21
-86.5
0
ENDSEC
0
EOF