0
SECTION
2
HEADER
9
$INSUNITS
70
4
0
ENDSEC
0
SECTION
2
TABLES
0
TABLE
2
LTYPE
0
LTYPE
72
65
70
64
2
CONTINUOUS
3
______
73
0
40
0
0
ENDTAB
0
TABLE
2
LAYER
0
ENDTAB
0
ENDSEC
0
SECTION
2
ENTITIES
0
LINE
8
0
10
52.5
20
-147.5
11
147.5
21
-147.5
0
LINE
8
0
10
147.5
20
-147.5
11
147.5
21
-52.5
0
LINE
8
0
10
52.5
20
-52.5
11
147.5
21
-52.5
0
LINE
8
0
10
52.5
20
-147.5
11
52.5
21
-52.5
0
LINE
8
0
10
187.5
20
-147.5
11
282.5
21
-147.5
0
LINE
8
0
10
282.5
20
-147.5
11
282.5
21
-52.5
0
LINE
8
0
10
187.5
20
-52.5
11
282.5
21
-52.5
0
LINE
8
0
10
187.5
20
-147.5
11
187.5
21
-52.5
0
ARC
8
0
10
147
20
-147
40
0.5
50
270
51
0
0
ARC
8
0
10
147
20
-53
40
0.5
50
0
51
90
0
ARC
8
0
10
53
20
-53
40
0.5
50
90
51
180
0
ARC
8
0
10
53
20
-147
40
0.5
50
180
51
270
0
ARC
8
0
10
282
20
-147
40
0.5
50
270
51
0
0
ARC
8
0
10
282
20
-53
40
0.5
50
0
51
90
0
ARC
8
0
10
188
20
-53
40
0.5
50
90
51
180
0
ARC
8
0
10
188
20
-147
40
0.5
50
180
51
270
0
LINE
8
0
10
59
20
-138.005
11
65
21
-138.005
0
LINE
8
0
10
65
20
-138.005
11
65
21
-137.995
0
LINE
8
0
10
65
20
-137.995
11
59
21
-137.995
0
LINE
8
0
10
59
20
-137.995
11
59
21
-138.005
0
LINE
8
0
10
59
20
-119.005
11
65
21
-119.005
0
LINE
8
0
10
65
20
-119.005
11
65
21
-118.995
0
LINE
8
0
10
65
20
-118.995
11
59
21
-118.995
0
LINE
8
0
10
59
20
-118.995
11
59
21
-119.005
0
LINE
8
0
10
59
20
-100.005
11
65
21
-100.005
0
LINE
8
0
10
65
20
-100.005
11
65
21
-99.995
0
LINE
8
0
10
65
20
-99.995
11
59
21
-99.995
0
LINE
8
0
10
59
20
-99.995
11
59
21
-100.005
0
LINE
8
0
10
59
20
-81.005
11
65
21
-81.005
0
LINE
8
0
10
65
20
-81.005
11
65
21
-80.995
0
LINE
8
0
10
65
20
-80.995
11
59
21
-80.995
0
LINE
8
0
10
59
20
-80.995
11
59
21
-81.005
0
LINE
8
0
10
59
20
-62.005
11
65
21
-62.005
0
LINE
8
0
10
65
20
-62.005
11
65
21
-61.995
0
LINE
8
0
10
65
20
-61.995
11
59
21
-61.995
0
LINE
8
0
10
59
20
-61.995
11
59
21
-62.005
0
LINE
8
0
10
78
20
-138.005
11
84
21
-138.005
0
LINE
8
0
10
84
20
-138.005
11
84
21
-137.995
0
LINE
8
0
10
84
20
-137.995
11
78
21
-137.995
0
LINE
8
0
10
78
20
-137.995
11
78
21
-138.005
0
LINE
8
0
10
78
20
-119.005
11
84
21
-119.005
0
LINE
8
0
10
84
20
-119.005
11
84
21
-118.995
0
LINE
8
0
10
84
20
-118.995
11
78
21
-118.995
0
LINE
8
0
10
78
20
-118.995
11
78
21
-119.005
0
LINE
8
0
10
78
20
-100.005
11
84
21
-100.005
0
LINE
8
0
10
84
20
-100.005
11
84
21
-99.995
0
LINE
8
0
10
84
20
-99.995
11
78
21
-99.995
0
LINE
8
0
10
78
20
-99.995
11
78
21
-100.005
0
LINE
8
0
10
78
20
-81.005
11
84
21
-81.005
0
LINE
8
0
10
84
20
-81.005
11
84
21
-80.995
0
LINE
8
0
10
84
20
-80.995
11
78
21
-80.995
0
LINE
8
0
10
78
20
-80.995
11
78
21
-81.005
0
LINE
8
0
10
78
20
-62.005
11
84
21
-62.005
0
LINE
8
0
10
84
20
-62.005
11
84
21
-61.995
0
LINE
8
0
10
84
20
-61.995
11
78
21
-61.995
0
LINE
8
0
10
78
20
-61.995
11
78
21
-62.005
0
LINE
8
0
10
97
20
-138.005
11
103
21
-138.005
0
LINE
8
0
10
103
20
-138.005
11
103
21
-137.995
0
LINE
8
0
10
103
20
-137.995
11
97
21
-137.995
0
LINE
8
0
10
97
20
-137.995
11
97
21
-138.005
0
LINE
8
0
10
97
20
-119.005
11
103
21
-119.005
0
LINE
8
0
10
103
20
-119.005
11
103
21
-118.995
0
LINE
8
0
10
103
20
-118.995
11
97
21
-118.995
0
LINE
8
0
10
97
20
-118.995
11
97
21
-119.005
0
LINE
8
0
10
97
20
-100.005
11
103
21
-100.005
0
LINE
8
0
10
103
20
-100.005
11
103
21
-99.995
0
LINE
8
0
10
103
20
-99.995
11
97
21
-99.995
0
LINE
8
0
10
97
20
-99.995
11
97
21
-100.005
0
LINE
8
0
10
97
20
-81.005
11
103
21
-81.005
0
LINE
8
0
10
103
20
-81.005
11
103
21
-80.995
0
LINE
8
0
10
103
20
-80.995
11
97
21
-80.995
0
LINE
8
0
10
97
20
-80.995
11
97
21
-81.005
0
LINE
8
0
10
97
20
-62.005
11
103
21
-62.005
0
LINE
8
0
10
103
20
-62.005
11
103
21
-61.995
0
LINE
8
0
10
103
20
-61.995
11
97
21
-61.995
0
LINE
8
0
10
97
20
-61.995
11
97
21
-62.005
0
LINE
8
0
10
116
20
-138.005
11
122
21
-138.005
0
LINE
8
0
10
122
20
-138.005
11
122
21
-137.995
0
LINE
8
0
10
122
20
-137.995
11
116
21
-137.995
0
LINE
8
0
10
116
20
-137.995
11
116
21
-138.005
0
LINE
8
0
10
116
20
-119.005
11
122
21
-119.005
0
LINE
8
0
10
122
20
-119.005
11
122
21
-118.995
0
LINE
8
0
10
122
20
-118.995
11
116
21
-118.995
0
LINE
8
0
10
116
20
-118.995
11
116
21
-119.005
0
LINE
8
0
10
116
20
-100.005
11
122
21
-100.005
0
LINE
8
0
10
122
20
-100.005
11
122
21
-99.995
0
LINE
8
0
10
122
20
-99.995
11
116
21
-99.995
0
LINE
8
0
10
116
20
-99.995
11
116
21
-100.005
0
LINE
8
0
10
116
20
-81.005
11
122
21
-81.005
0
LINE
8
0
10
122
20
-81.005
11
122
21
-80.995
0
LINE
8
0
10
122
20
-80.995
11
116
21
-80.995
0
LINE
8
0
10
116
20
-80.995
11
116
21
-81.005
0
LINE
8
0
10
116
20
-62.005
11
122
21
-62.005
0
LINE
8
0
10
122
20
-62.005
11
122
21
-61.995
0
LINE
8
0
10
122
20
-61.995
11
116
21
-61.995
0
LINE
8
0
10
116
20
-61.995
11
116
21
-62.005
0
LINE
8
0
10
135
20
-138.005
11
141
21
-138.005
0
LINE
8
0
10
141
20
-138.005
11
141
21
-137.995
0
LINE
8
0
10
141
20
-137.995
11
135
21
-137.995
0
LINE
8
0
10
135
20
-137.995
11
135
21
-138.005
0
LINE
8
0
10
135
20
-119.005
11
141
21
-119.005
0
LINE
8
0
10
141
20
-119.005
11
141
21
-118.995
0
LINE
8
0
10
141
20
-118.995
11
135
21
-118.995
0
LINE
8
0
10
135
20
-118.995
11
135
21
-119.005
0
LINE
8
0
10
135
20
-100.005
11
141
21
-100.005
0
LINE
8
0
10
141
20
-100.005
11
141
21
-99.995
0
LINE
8
0
10
141
20
-99.995
11
135
21
-99.995
0
LINE
8
0
10
135
20
-99.995
11
135
21
-100.005
0
LINE
8
0
10
135
20
-81.005
11
141
21
-81.005
0
LINE
8
0
10
141
20
-81.005
11
141
21
-80.995
0
LINE
8
0
10
141
20
-80.995
11
135
21
-80.995
0
LINE
8
0
10
135
20
-80.995
11
135
21
-81.005
0
LINE
8
0
10
135
20
-62.005
11
141
21
-62.005
0
LINE
8
0
10
141
20
-62.005
11
141
21
-61.995
0
LINE
8
0
10
141
20
-61.995
11
135
21
-61.995
0
LINE
8
0
10
135
20
-61.995
11
135
21
-62.005
0
LINE
8
0
10
270
20
-138.005
11
276
21
-138.005
0
LINE
8
0
10
276
20
-138.005
11
276
21
-137.995
0
LINE
8
0
10
276
20
-137.995
11
270
21
-137.995
0
LINE
8
0
10
270
20
-137.995
11
270
21
-138.005
0
LINE
8
0
10
270
20
-119.005
11
276
21
-119.005
0
LINE
8
0
10
276
20
-119.005
11
276
21
-118.995
0
LINE
8
0
10
276
20
-118.995
11
270
21
-118.995
0
LINE
8
0
10
270
20
-118.995
11
270
21
-119.005
0
LINE
8
0
10
270
20
-100.005
11
276
21
-100.005
0
LINE
8
0
10
276
20
-100.005
11
276
21
-99.995
0
LINE
8
0
10
276
20
-99.995
11
270
21
-99.995
0
LINE
8
0
10
270
20
-99.995
11
270
21
-100.005
0
LINE
8
0
10
270
20
-81.005
11
276
21
-81.005
0
LINE
8
0
10
276
20
-81.005
11
276
21
-80.995
0
LINE
8
0
10
276
20
-80.995
11
270
21
-80.995
0
LINE
8
0
10
270
20
-80.995
11
270
21
-81.005
0
LINE
8
0
10
270
20
-62.005
11
276
21
-62.005
0
LINE
8
0
10
276
20
-62.005
11
276
21
-61.995
0
LINE
8
0
10
276
20
-61.995
11
270
21
-61.995
0
LINE
8
0
10
270
20
-61.995
11
270
21
-62.005
0
LINE
8
0
10
251
20
-138.005
11
257
21
-138.005
0
LINE
8
0
10
257
20
-138.005
11
257
21
-137.995
0
LINE
8
0
10
257
20
-137.995
11
251
21
-137.995
0
LINE
8
0
10
251
20
-137.995
11
251
21
-138.005
0
LINE
8
0
10
251
20
-119.005
11
257
21
-119.005
0
LINE
8
0
10
257
20
-119.005
11
257
21
-118.995
0
LINE
8
0
10
257
20
-118.995
11
251
21
-118.995
0
LINE
8
0
10
251
20
-118.995
11
251
21
-119.005
0
LINE
8
0
10
251
20
-100.005
11
257
21
-100.005
0
LINE
8
0
10
257
20
-100.005
11
257
21
-99.995
0
LINE
8
0
10
257
20
-99.995
11
251
21
-99.995
0
LINE
8
0
10
251
20
-99.995
11
251
21
-100.005
0
LINE
8
0
10
251
20
-81.005
11
257
21
-81.005
0
LINE
8
0
10
257
20
-81.005
11
257
21
-80.995
0
LINE
8
0
10
257
20
-80.995
11
251
21
-80.995
0
LINE
8
0
10
251
20
-80.995
11
251
21
-81.005
0
LINE
8
0
10
251
20
-62.005
11
257
21
-62.005
0
LINE
8
0
10
257
20
-62.005
11
257
21
-61.995
0
LINE
8
0
10
257
20
-61.995
11
251
21
-61.995
0
LINE
8
0
10
251
20
-61.995
11
251
21
-62.005
0
LINE
8
0
10
232
20
-138.005
11
238
21
-138.005
0
LINE
8
0
10
238
20
-138.005
11
238
21
-137.995
0
LINE
8
0
10
238
20
-137.995
11
232
21
-137.995
0
LINE
8
0
10
232
20
-137.995
11
232
21
-138.005
0
LINE
8
0
10
232
20
-119.005
11
238
21
-119.005
0
LINE
8
0
10
238
20
-119.005
11
238
21
-118.995
0
LINE
8
0
10
238
20
-118.995
11
232
21
-118.995
0
LINE
8
0
10
232
20
-118.995
11
232
21
-119.005
0
LINE
8
0
10
232
20
-100.005
11
238
21
-100.005
0
LINE
8
0
10
238
20
-100.005
11
238
21
-99.995
0
LINE
8
0
10
238
20
-99.995
11
232
21
-99.995
0
LINE
8
0
10
232
20
-99.995
11
232
21
-100.005
0
LINE
8
0
10
232
20
-81.005
11
238
21
-81.005
0
LINE
8
0
10
238
20
-81.005
11
238
21
-80.995
0
LINE
8
0
10
238
20
-80.995
11
232
21
-80.995
0
LINE
8
0
10
232
20
-80.995
11
232
21
-81.005
0
LINE
8
0
10
232
20
-62.005
11
238
21
-62.005
0
LINE
8
0
10
238
20
-62.005
11
238
21
-61.995
0
LINE
8
0
10
238
20
-61.995
11
232
21
-61.995
0
LINE
8
0
10
232
20
-61.995
11
232
21
-62.005
0
LINE
8
0
10
213
20
-138.005
11
219
21
-138.005
0
LINE
8
0
10
219
20
-138.005
11
219
21
-137.995
0
LINE
8
0
10
219
20
-137.995
11
213
21
-137.995
0
LINE
8
0
10
213
20
-137.995
11
213
21
-138.005
0
LINE
8
0
10
213
20
-119.005
11
219
21
-119.005
0
LINE
8
0
10
219
20
-119.005
11
219
21
-118.995
0
LINE
8
0
10
219
20
-118.995
11
213
21
-118.995
0
LINE
8
0
10
213
20
-118.995
11
213
21
-119.005
0
LINE
8
0
10
213
20
-100.005
11
219
21
-100.005
0
LINE
8
0
10
219
20
-100.005
11
219
21
-99.995
0
LINE
8
0
10
219
20
-99.995
11
213
21
-99.995
0
LINE
8
0
10
213
20
-99.995
11
213
21
-100.005
0
LINE
8
0
10
213
20
-81.005
11
219
21
-81.005
0
LINE
8
0
10
219
20
-81.005
11
219
21
-80.995
0
LINE
8
0
10
219
20
-80.995
11
213
21
-80.995
0
LINE
8
0
10
213
20
-80.995
11
213
21
-81.005
0
LINE
8
0
10
213
20
-62.005
11
219
21
-62.005
0
LINE
8
0
10
219
20
-62.005
11
219
21
-61.995
0
LINE
8
0
10
219
20
-61.995
11
213
21
-61.995
0
LINE
8
0
10
213
20
-61.995
11
213
21
-62.005
0
LINE
8
0
10
194
20
-138.005
11
200
21
-138.005
0
LINE
8
0
10
200
20
-138.005
11
200
21
-137.995
0
LINE
8
0
10
200
20
-137.995
11
194
21
-137.995
0
LINE
8
0
10
194
20
-137.995
11
194
21
-138.005
0
LINE
8
0
10
194
20
-119.005
11
200
21
-119.005
0
LINE
8
0
10
200
20
-119.005
11
200
21
-118.995
0
LINE
8
0
10
200
20
-118.995
11
194
21
-118.995
0
LINE
8
0
10
194
20
-118.995
11
194
21
-119.005
0
LINE
8
0
10
194
20
-100.005
11
200
21
-100.005
0
LINE
8
0
10
200
20
-100.005
11
200
21
-99.995
0
LINE
8
0
10
200
20
-99.995
11
194
21
-99.995
0
LINE
8
0
10
194
20
-99.995
11
194
21
-100.005
0
LINE
8
0
10
194
20
-81.005
11
200
21
-81.005
0
LINE
8
0
10
200
20
-81.005
11
200
21
-80.995
0
LINE
8
0
10
200
20
-80.995
11
194
21
-80.995
0
LINE
8
0
10
194
20
-80.995
11
194
21
-81.005
0
LINE
8
0
10
194
20
-62.005
11
200
21
-62.005
0
LINE
8
0
10
200
20
-62.005
11
200
21
-61.995
0
LINE
8
0
10
200
20
-61.995
11
194
21
-61.995
0
LINE
8
0
10
194
20
-61.995
11
194
21
-62.005
0
LINE
8
0
10
61.995
20
-140
11
62.005
21
-140
0
LINE
8
0
10
62.005
20
-140
11
62.005
21
-136
0
LINE
8
0
10
62.005
20
-136
11
61.995
21
-136
0
LINE
8
0
10
61.995
20
-136
11
61.995
21
-140
0
LINE
8
0
10
61.995
20
-121
11
62.005
21
-121
0
LINE
8
0
10
62.005
20
-121
11
62.005
21
-117
0
LINE
8
0
10
62.005
20
-117
11
61.995
21
-117
0
LINE
8
0
10
61.995
20
-117
11
61.995
21
-121
0
LINE
8
0
10
61.995
20
-102
11
62.005
21
-102
0
LINE
8
0
10
62.005
20
-102
11
62.005
21
-98
0
LINE
8
0
10
62.005
20
-98
11
61.995
21
-98
0
LINE
8
0
10
61.995
20
-98
11
61.995
21
-102
0
LINE
8
0
10
61.995
20
-83
11
62.005
21
-83
0
LINE
8
0
10
62.005
20
-83
11
62.005
21
-79
0
LINE
8
0
10
62.005
20
-79
11
61.995
21
-79
0
LINE
8
0
10
61.995
20
-79
11
61.995
21
-83
0
LINE
8
0
10
61.995
20
-64
11
62.005
21
-64
0
LINE
8
0
10
62.005
20
-64
11
62.005
21
-60
0
LINE
8
0
10
62.005
20
-60
11
61.995
21
-60
0
LINE
8
0
10
61.995
20
-60
11
61.995
21
-64
0
LINE
8
0
10
80.995
20
-140
11
81.005
21
-140
0
LINE
8
0
10
81.005
20
-140
11
81.005
21
-136
0
LINE
8
0
10
81.005
20
-136
11
80.995
21
-136
0
LINE
8
0
10
80.995
20
-136
11
80.995
21
-140
0
LINE
8
0
10
80.995
20
-121
11
81.005
21
-121
0
LINE
8
0
10
81.005
20
-121
11
81.005
21
-117
0
LINE
8
0
10
81.005
20
-117
11
80.995
21
-117
0
LINE
8
0
10
80.995
20
-117
11
80.995
21
-121
0
LINE
8
0
10
80.995
20
-102
11
81.005
21
-102
0
LINE
8
0
10
81.005
20
-102
11
81.005
21
-98
0
LINE
8
0
10
81.005
20
-98
11
80.995
21
-98
0
LINE
8
0
10
80.995
20
-98
11
80.995
21
-102
0
LINE
8
0
10
80.995
20
-83
11
81.005
21
-83
0
LINE
8
0
10
81.005
20
-83
11
81.005
21
-79
0
LINE
8
0
10
81.005
20
-79
11
80.995
21
-79
0
LINE
8
0
10
80.995
20
-79
11
80.995
21
-83
0
LINE
8
0
10
80.995
20
-64
11
81.005
21
-64
0
LINE
8
0
10
81.005
20
-64
11
81.005
21
-60
0
LINE
8
0
10
81.005
20
-60
11
80.995
21
-60
0
LINE
8
0
10
80.995
20
-60
11
80.995
21
-64
0
LINE
8
0
10
99.995
20
-140
11
100.005
21
-140
0
LINE
8
0
10
100.005
20
-140
11
100.005
21
-136
0
LINE
8
0
10
100.005
20
-136
11
99.995
21
-136
0
LINE
8
0
10
99.995
20
-136
11
99.995
21
-140
0
LINE
8
0
10
99.995
20
-121
11
100.005
21
-121
0
LINE
8
0
10
100.005
20
-121
11
100.005
21
-117
0
LINE
8
0
10
100.005
20
-117
11
99.995
21
-117
0
LINE
8
0
10
99.995
20
-117
11
99.995
21
-121
0
LINE
8
0
10
99.995
20
-102
11
100.005
21
-102
0
LINE
8
0
10
100.005
20
-102
11
100.005
21
-98
0
LINE
8
0
10
100.005
20
-98
11
99.995
21
-98
0
LINE
8
0
10
99.995
20
-98
11
99.995
21
-102
0
LINE
8
0
10
99.995
20
-83
11
100.005
21
-83
0
LINE
8
0
10
100.005
20
-83
11
100.005
21
-79
0
LINE
8
0
10
100.005
20
-79
11
99.995
21
-79
0
LINE
8
0
10
99.995
20
-79
11
99.995
21
-83
0
LINE
8
0
10
99.995
20
-64
11
100.005
21
-64
0
LINE
8
0
10
100.005
20
-64
11
100.005
21
-60
0
LINE
8
0
10
100.005
20
-60
11
99.995
21
-60
0
LINE
8
0
10
99.995
20
-60
11
99.995
21
-64
0
LINE
8
0
10
118.995
20
-140
11
119.005
21
-140
0
LINE
8
0
10
119.005
20
-140
11
119.005
21
-136
0
LINE
8
0
10
119.005
20
-136
11
118.995
21
-136
0
LINE
8
0
10
118.995
20
-136
11
118.995
21
-140
0
LINE
8
0
10
118.995
20
-121
11
119.005
21
-121
0
LINE
8
0
10
119.005
20
-121
11
119.005
21
-117
0
LINE
8
0
10
119.005
20
-117
11
118.995
21
-117
0
LINE
8
0
10
118.995
20
-117
11
118.995
21
-121
0
LINE
8
0
10
118.995
20
-102
11
119.005
21
-102
0
LINE
8
0
10
119.005
20
-102
11
119.005
21
-98
0
LINE
8
0
10
119.005
20
-98
11
118.995
21
-98
0
LINE
8
0
10
118.995
20
-98
11
118.995
21
-102
0
LINE
8
0
10
118.995
20
-83
11
119.005
21
-83
0
LINE
8
0
10
119.005
20
-83
11
119.005
21
-79
0
LINE
8
0
10
119.005
20
-79
11
118.995
21
-79
0
LINE
8
0
10
118.995
20
-79
11
118.995
21
-83
0
LINE
8
0
10
118.995
20
-64
11
119.005
21
-64
0
LINE
8
0
10
119.005
20
-64
11
119.005
21
-60
0
LINE
8
0
10
119.005
20
-60
11
118.995
21
-60
0
LINE
8
0
10
118.995
20
-60
11
118.995
21
-64
0
LINE
8
0
10
137.995
20
-140
11
138.005
21
-140
0
LINE
8
0
10
138.005
20
-140
11
138.005
21
-136
0
LINE
8
0
10
138.005
20
-136
11
137.995
21
-136
0
LINE
8
0
10
137.995
20
-136
11
137.995
21
-140
0
LINE
8
0
10
137.995
20
-121
11
138.005
21
-121
0
LINE
8
0
10
138.005
20
-121
11
138.005
21
-117
0
LINE
8
0
10
138.005
20
-117
11
137.995
21
-117
0
LINE
8
0
10
137.995
20
-117
11
137.995
21
-121
0
LINE
8
0
10
137.995
20
-102
11
138.005
21
-102
0
LINE
8
0
10
138.005
20
-102
11
138.005
21
-98
0
LINE
8
0
10
138.005
20
-98
11
137.995
21
-98
0
LINE
8
0
10
137.995
20
-98
11
137.995
21
-102
0
LINE
8
0
10
137.995
20
-83
11
138.005
21
-83
0
LINE
8
0
10
138.005
20
-83
11
138.005
21
-79
0
LINE
8
0
10
138.005
20
-79
11
137.995
21
-79
0
LINE
8
0
10
137.995
20
-79
11
137.995
21
-83
0
LINE
8
0
10
137.995
20
-64
11
138.005
21
-64
0
LINE
8
0
10
138.005
20
-64
11
138.005
21
-60
0
LINE
8
0
10
138.005
20
-60
11
137.995
21
-60
0
LINE
8
0
10
137.995
20
-60
11
137.995
21
-64
0
LINE
8
0
10
272.995
20
-140
11
273.005
21
-140
0
LINE
8
0
10
273.005
20
-140
11
273.005
21
-136
0
LINE
8
0
10
273.005
20
-136
11
272.995
21
-136
0
LINE
8
0
10
272.995
20
-136
11
272.995
21
-140
0
LINE
8
0
10
272.995
20
-121
11
273.005
21
-121
0
LINE
8
0
10
273.005
20
-121
11
273.005
21
-117
0
LINE
8
0
10
273.005
20
-117
11
272.995
21
-117
0
LINE
8
0
10
272.995
20
-117
11
272.995
21
-121
0
LINE
8
0
10
272.995
20
-102
11
273.005
21
-102
0
LINE
8
0
10
273.005
20
-102
11
273.005
21
-98
0
LINE
8
0
10
273.005
20
-98
11
272.995
21
-98
0
LINE
8
0
10
272.995
20
-98
11
272.995
21
-102
0
LINE
8
0
10
272.995
20
-83
11
273.005
21
-83
0
LINE
8
0
10
273.005
20
-83
11
273.005
21
-79
0
LINE
8
0
10
273.005
20
-79
11
272.995
21
-79
0
LINE
8
0
10
272.995
20
-79
11
272.995
21
-83
0
LINE
8
0
10
272.995
20
-64
11
273.005
21
-64
0
LINE
8
0
10
273.005
20
-64
11
273.005
21
-60
0
LINE
8
0
10
273.005
20
-60
11
272.995
21
-60
0
LINE
8
0
10
272.995
20
-60
11
272.995
21
-64
0
LINE
8
0
10
253.995
20
-140
11
254.005
21
-140
0
LINE
8
0
10
254.005
20
-140
11
254.005
21
-136
0
LINE
8
0
10
254.005
20
-136
11
253.995
21
-136
0
LINE
8
0
10
253.995
20
-136
11
253.995
21
-140
0
LINE
8
0
10
253.995
20
-121
11
254.005
21
-121
0
LINE
8
0
10
254.005
20
-121
11
254.005
21
-117
0
LINE
8
0
10
254.005
20
-117
11
253.995
21
-117
0
LINE
8
0
10
253.995
20
-117
11
253.995
21
-121
0
LINE
8
0
10
253.995
20
-102
11
254.005
21
-102
0
LINE
8
0
10
254.005
20
-102
11
254.005
21
-98
0
LINE
8
0
10
254.005
20
-98
11
253.995
21
-98
0
LINE
8
0
10
253.995
20
-98
11
253.995
21
-102
0
LINE
8
0
10
253.995
20
-83
11
254.005
21
-83
0
LINE
8
0
10
254.005
20
-83
11
254.005
21
-79
0
LINE
8
0
10
254.005
20
-79
11
253.995
21
-79
0
LINE
8
0
10
253.995
20
-79
11
253.995
21
-83
0
LINE
8
0
10
253.995
20
-64
11
254.005
21
-64
0
LINE
8
0
10
254.005
20
-64
11
254.005
21
-60
0
LINE
8
0
10
254.005
20
-60
11
253.995
21
-60
0
LINE
8
0
10
253.995
20
-60
11
253.995
21
-64
0
LINE
8
0
10
234.995
20
-140
11
235.005
21
-140
0
LINE
8
0
10
235.005
20
-140
11
235.005
21
-136
0
LINE
8
0
10
235.005
20
-136
11
234.995
21
-136
0
LINE
8
0
10
234.995
20
-136
11
234.995
21
-140
0
LINE
8
0
10
234.995
20
-121
11
235.005
21
-121
0
LINE
8
0
10
235.005
20
-121
11
235.005
21
-117
0
LINE
8
0
10
235.005
20
-117
11
234.995
21
-117
0
LINE
8
0
10
234.995
20
-117
11
234.995
21
-121
0
LINE
8
0
10
234.995
20
-102
11
235.005
21
-102
0
LINE
8
0
10
235.005
20
-102
11
235.005
21
-98
0
LINE
8
0
10
235.005
20
-98
11
234.995
21
-98
0
LINE
8
0
10
234.995
20
-98
11
234.995
21
-102
0
LINE
8
0
10
234.995
20
-83
11
235.005
21
-83
0
LINE
8
0
10
235.005
20
-83
11
235.005
21
-79
0
LINE
8
0
10
235.005
20
-79
11
234.995
21
-79
0
LINE
8
0
10
234.995
20
-79
11
234.995
21
-83
0
LINE
8
0
10
234.995
20
-64
11
235.005
21
-64
0
LINE
8
0
10
235.005
20
-64
11
235.005
21
-60
0
LINE
8
0
10
235.005
20
-60
11
234.995
21
-60
0
LINE
8
0
10
234.995
20
-60
11
234.995
21
-64
0
LINE
8
0
10
215.995
20
-140
11
216.005
21
-140
0
LINE
8
0
10
216.005
20
-140
11
216.005
21
-136
0
LINE
8
0
10
216.005
20
-136
11
215.995
21
-136
0
LINE
8
0
10
215.995
20
-136
11
215.995
21
-140
0
LINE
8
0
10
215.995
20
-121
11
216.005
21
-121
0
LINE
8
0
10
216.005
20
-121
11
216.005
21
-117
0
LINE
8
0
10
216.005
20
-117
11
215.995
21
-117
0
LINE
8
0
10
215.995
20
-117
11
215.995
21
-121
0
LINE
8
0
10
215.995
20
-102
11
216.005
21
-102
0
LINE
8
0
10
216.005
20
-102
11
216.005
21
-98
0
LINE
8
0
10
216.005
20
-98
11
215.995
21
-98
0
LINE
8
0
10
215.995
20
-98
11
215.995
21
-102
0
LINE
8
0
10
215.995
20
-83
11
216.005
21
-83
0
LINE
8
0
10
216.005
20
-83
11
216.005
21
-79
0
LINE
8
0
10
216.005
20
-79
11
215.995
21
-79
0
LINE
8
0
10
215.995
20
-79
11
215.995
21
-83
0
LINE
8
0
10
215.995
20
-64
11
216.005
21
-64
0
LINE
8
0
10
216.005
20
-64
11
216.005
21
-60
0
LINE
8
0
10
216.005
20
-60
11
215.995
21
-60
0
LINE
8
0
10
215.995
20
-60
11
215.995
21
-64
0
LINE
8
0
10
196.995
20
-140
11
197.005
21
-140
0
LINE
8
0
10
197.005
20
-140
11
197.005
21
-136
0
LINE
8
0
10
197.005
20
-136
11
196.995
21
-136
0
LINE
8
0
10
196.995
20
-136
11
196.995
21
-140
0
LINE
8
0
10
196.995
20
-121
11
197.005
21
-121
0
LINE
8
0
10
197.005
20
-121
11
197.005
21
-117
0
LINE
8
0
10
197.005
20
-117
11
196.995
21
-117
0
LINE
8
0
10
196.995
20
-117
11
196.995
21
-121
0
LINE
8
0
10
196.995
20
-102
11
197.005
21
-102
0
LINE
8
0
10
197.005
20
-102
11
197.005
21
-98
0
LINE
8
0
10
197.005
20
-98
11
196.995
21
-98
0
LINE
8
0
10
196.995
20
-98
11
196.995
21
-102
0
LINE
8
0
10
196.995
20
-83
11
197.005
21
-83
0
LINE
8
0
10
197.005
20
-83
11
197.005
21
-79
0
LINE
8
0
10
197.005
20
-79
11
196.995
21
-79
0
LINE
8
0
10
196.995
20
-79
11
196.995
21
-83
0
LINE
8
0
10
196.995
20
-64
11
197.005
21
-64
0
LINE
8
0
10
197.005
20
-64
11
197.005
21
-60
0
LINE
8
0
10
197.005
20
-60
11
196.995
21
-60
0
LINE
8
0
10
196.995
20
-60
11
196.995
21
-64
0
LINE
8
0
10
71.5
20
-147.5
11
71.5
21
-52.5
0
LINE
8
0
10
52.5
20
-128.5
11
147.5
21
-128.5
0
LINE
8
0
10
52.5
20
-109.5
11
147.5
21
-109.5
0
LINE
8
0
10
52.5
20
-90.5
11
147.5
21
-90.5
0
LINE
8
0
10
52.5
20
-71.5
11
147.5
21
-71.5
0
LINE
8
0
10
90.5
20
-147.5
11
90.5
21
-52.5
0
LINE
8
0
10
109.5
20
-147.5
11
109.5
21
-52.5
0
LINE
8
0
10
128.5
20
-147.5
11
128.5
21
-52.5
0
LINE
8
0
10
187.5
20
-128.5
11
282.5
21
-128.5
0
LINE
8
0
10
263.5
20
-147.5
11
263.5
21
-52.5
0
LINE
8
0
10
187.5
20
-109.5
11
282.5
21
-109.5
0
LINE
8
0
10
187.5
20
-90.5
11
282.5
21
-90.5
0
LINE
8
0
10
187.5
20
-71.5
11
282.5
21
-71.5
0
LINE
8
0
10
244.5
20
-147.5
11
244.5
21
-52.5
0
LINE
8
0
10
225.5
20
-147.5
11
225.5
21
-52.5
0
LINE
8
0
10
206.5
20
-147.5
11
206.5
21
-52.5
0
LINE
8
0
10
53.5
20
-147
11
70.5
21
-147
0
LINE
8
0
10
71
20
-146.5
11
71
21
-129.5
0
LINE
8
0
10
70.5
20
-129
11
53.5
21
-129
0
LINE
8
0
10
53
20
-129.5
11
53
21
-146.5
0
LINE
8
0
10
53.5
20
-128
11
70.5
21
-128
0
LINE
8
0
10
71
20
-127.5
11
71
21
-110.5
0
LINE
8
0
10
70.5
20
-110
11
53.5
21
-110
0
LINE
8
0
10
53
20
-110.5
11
53
21
-127.5
0
LINE
8
0
10
53.5
20
-109
11
70.5
21
-109
0
LINE
8
0
10
71
20
-108.5
11
71
21
-91.5
0
LINE
8
0
10
70.5
20
-91
11
53.5
21
-91
0
LINE
8
0
10
53
20
-91.5
11
53
21
-108.5
0
LINE
8
0
10
53.5
20
-90
11
70.5
21
-90
0
LINE
8
0
10
71
20
-89.5
11
71
21
-72.5
0
LINE
8
0
10
70.5
20
-72
11
53.5
21
-72
0
LINE
8
0
10
53
20
-72.5
11
53
21
-89.5
0
LINE
8
0
10
53.5
20
-71
11
70.5
21
-71
0
LINE
8
0
10
71
20
-70.5
11
71
21
-53.5
0
LINE
8
0
10
70.5
20
-53
11
53.5
21
-53
0
LINE
8
0
10
53
20
-53.5
11
53
21
-70.5
0
LINE
8
0
10
72.5
20
-147
11
89.5
21
-147
0
LINE
8
0
10
90
20
-146.5
11
90
21
-129.5
0
LINE
8
0
10
89.5
20
-129
11
72.5
21
-129
0
LINE
8
0
10
72
20
-129.5
11
72
21
-146.5
0
LINE
8
0
10
72.5
20
-128
11
89.5
21
-128
0
LINE
8
0
10
90
20
-127.5
11
90
21
-110.5
0
LINE
8
0
10
89.5
20
-110
11
72.5
21
-110
0
LINE
8
0
10
72
20
-110.5
11
72
21
-127.5
0
LINE
8
0
10
72.5
20
-109
11
89.5
21
-109
0
LINE
8
0
10
90
20
-108.5
11
90
21
-91.5
0
LINE
8
0
10
89.5
20
-91
11
72.5
21
-91
0
LINE
8
0
10
72
20
-91.5
11
72
21
-108.5
0
LINE
8
0
10
72.5
20
-90
11
89.5
21
-90
0
LINE
8
0
10
90
20
-89.5
11
90
21
-72.5
0
LINE
8
0
10
89.5
20
-72
11
72.5
21
-72
0
LINE
8
0
10
72
20
-72.5
11
72
21
-89.5
0
LINE
8
0
10
72.5
20
-71
11
89.5
21
-71
0
LINE
8
0
10
90
20
-70.5
11
90
21
-53.5
0
LINE
8
0
10
89.5
20
-53
11
72.5
21
-53
0
LINE
8
0
10
72
20
-53.5
11
72
21
-70.5
0
LINE
8
0
10
264.5
20
-147
11
281.5
21
-147
0
LINE
8
0
10
282
20
-146.5
11
282
21
-129.5
0
LINE
8
0
10
281.5
20
-129
11
264.5
21
-129
0
LINE
8
0
10
264
20
-129.5
11
264
21
-146.5
0
LINE
8
0
10
264.5
20
-128
11
281.5
21
-128
0
LINE
8
0
10
282
20
-127.5
11
282
21
-110.5
0
LINE
8
0
10
281.5
20
-110
11
264.5
21
-110
0
LINE
8
0
10
264
20
-110.5
11
264
21
-127.5
0
LINE
8
0
10
264.5
20
-109
11
281.5
21
-109
0
LINE
8
0
10
282
20
-108.5
11
282
21
-91.5
0
LINE
8
0
10
281.5
20
-91
11
264.5
21
-91
0
LINE
8
0
10
264
20
-91.5
11
264
21
-108.5
0
LINE
8
0
10
264.5
20
-90
11
281.5
21
-90
0
LINE
8
0
10
282
20
-89.5
11
282
21
-72.5
0
LINE
8
0
10
281.5
20
-72
11
264.5
21
-72
0
LINE
8
0
10
264
20
-72.5
11
264
21
-89.5
0
LINE
8
0
10
264.5
20
-71
11
281.5
21
-71
0
LINE
8
0
10
282
20
-70.5
11
282
21
-53.5
0
LINE
8
0
10
281.5
20
-53
11
264.5
21
-53
0
LINE
8
0
10
264
20
-53.5
11
264
21
-70.5
0
LINE
8
0
10
245.5
20
-147
11
262.5
21
-147
0
LINE
8
0
10
263
20
-146.5
11
263
21
-129.5
0
LINE
8
0
10
262.5
20
-129
11
245.5
21
-129
0
LINE
8
0
10
245
20
-129.5
11
245
21
-146.5
0
LINE
8
0
10
245.5
20
-128
11
262.5
21
-128
0
LINE
8
0
10
263
20
-127.5
11
263
21
-110.5
0
LINE
8
0
10
262.5
20
-110
11
245.5
21
-110
0
LINE
8
0
10
245
20
-110.5
11
245
21
-127.5
0
LINE
8
0
10
245.5
20
-109
11
262.5
21
-109
0
LINE
8
0
10
263
20
-108.5
11
263
21
-91.5
0
LINE
8
0
10
262.5
20
-91
11
245.5
21
-91
0
LINE
8
0
10
245
20
-91.5
11
245
21
-108.5
0
LINE
8
0
10
245.5
20
-90
11
262.5
21
-90
0
LINE
8
0
10
263
20
-89.5
11
263
21
-72.5
0
LINE
8
0
10
262.5
20
-72
11
245.5
21
-72
0
LINE
8
0
10
245
20
-72.5
11
245
21
-89.5
0
LINE
8
0
10
245.5
20
-71
11
262.5
21
-71
0
LINE
8
0
10
263
20
-70.5
11
263
21
-53.5
0
LINE
8
0
10
262.5
20
-53
11
245.5
21
-53
0
LINE
8
0
10
245
20
-53.5
11
245
21
-70.5
0
ARC
8
0
10
70.5
20
-146.5
40
0.5
50
270
51
0
0
ARC
8
0
10
70.5
20
-129.5
40
0.5
50
0
51
90
0
ARC
8
0
10
53.5
20
-129.5
40
0.5
50
90
51
180
0
ARC
8
0
10
53.5
20
-146.5
40
0.5
50
180
51
270
0
ARC
8
0
10
70.5
20
-127.5
40
0.5
50
270
51
0
0
ARC
8
0
10
70.5
20
-110.5
40
0.5
50
0
51
90
0
ARC
8
0
10
53.5
20
-110.5
40
0.5
50
90
51
180
0
ARC
8
0
10
53.5
20
-127.5
40
0.5
50
180
51
270
0
ARC
8
0
10
70.5
20
-108.5
40
0.5
50
270
51
0
0
ARC
8
0
10
70.5
20
-91.5
40
0.5
50
0
51
90
0
ARC
8
0
10
53.5
20
-91.5
40
0.5
50
90
51
180
0
ARC
8
0
10
53.5
20
-108.5
40
0.5
50
180
51
270
0
ARC
8
0
10
70.5
20
-89.5
40
0.5
50
270
51
0
0
ARC
8
0
10
70.5
20
-72.5
40
0.5
50
0
51
90
0
ARC
8
0
10
53.5
20
-72.5
40
0.5
50
90
51
180
0
ARC
8
0
10
53.5
20
-89.5
40
0.5
50
180
51
270
0
ARC
8
0
10
70.5
20
-70.5
40
0.5
50
270
51
0
0
ARC
8
0
10
70.5
20
-53.5
40
0.5
50
0
51
90
0
ARC
8
0
10
53.5
20
-53.5
40
0.5
50
90
51
180
0
ARC
8
0
10
53.5
20
-70.5
40
0.5
50
180
51
270
0
ARC
8
0
10
89.5
20
-146.5
40
0.5
50
270
51
0
0
ARC
8
0
10
89.5
20
-129.5
40
0.5
50
0
51
90
0
ARC
8
0
10
72.5
20
-129.5
40
0.5
50
90
51
180
0
ARC
8
0
10
72.5
20
-146.5
40
0.5
50
180
51
270
0
ARC
8
0
10
89.5
20
-127.5
40
0.5
50
270
51
0
0
ARC
8
0
10
89.5
20
-110.5
40
0.5
50
0
51
90
0
ARC
8
0
10
72.5
20
-110.5
40
0.5
50
90
51
180
0
ARC
8
0
10
72.5
20
-127.5
40
0.5
50
180
51
270
0
ARC
8
0
10
89.5
20
-108.5
40
0.5
50
270
51
0
0
ARC
8
0
10
89.5
20
-91.5
40
0.5
50
0
51
90
0
ARC
8
0
10
72.5
20
-91.5
40
0.5
50
90
51
180
0
ARC
8
0
10
72.5
20
-108.5
40
0.5
50
180
51
270
0
ARC
8
0
10
89.5
20
-89.5
40
0.5
50
270
51
0
0
ARC
8
0
10
89.5
20
-72.5
40
0.5
50
0
51
90
0
ARC
8
0
10
72.5
20
-72.5
40
0.5
50
90
51
180
0
ARC
8
0
10
72.5
20
-89.5
40
0.5
50
180
51
270
0
ARC
8
0
10
89.5
20
-70.5
40
0.5
50
270
51
0
0
ARC
8
0
10
89.5
20
-53.5
40
0.5
50
0
51
90
0
ARC
8
0
10
72.5
20
-53.5
40
0.5
50
90
51
180
0
ARC
8
0
10
72.5
20
-70.5
40
0.5
50
180
51
270
0
ARC
8
0
10
281.5
20
-146.5
40
0.5
50
270
51
0
0
ARC
8
0
10
281.5
20
-129.5
40
0.5
50
0
51
90
0
ARC
8
0
10
264.5
20
-129.5
40
0.5
50
90
51
180
0
ARC
8
0
10
264.5
20
-146.5
40
0.5
50
180
51
270
0
ARC
8
0
10
281.5
20
-127.5
40
0.5
50
270
51
0
0
ARC
8
0
10
281.5
20
-110.5
40
0.5
50
0
51
90
0
ARC
8
0
10
264.5
20
-110.5
40
0.5
50
90
51
180
0
ARC
8
0
10
264.5
20
-127.5
40
0.5
50
180
51
270
0
ARC
8
0
10
281.5
20
-108.5
40
0.5
50
270
51
0
0
ARC
8
0
10
281.5
20
-91.5
40
0.5
50
0
51
90
0
ARC
8
0
10
264.5
20
-91.5
40
0.5
50
90
51
180
0
ARC
8
0
10
264.5
20
-108.5
40
0.5
50
180
51
270
0
ARC
8
0
10
281.5
20
-89.5
40
0.5
50
270
51
0
0
ARC
8
0
10
281.5
20
-72.5
40
0.5
50
0
51
90
0
ARC
8
0
10
264.5
20
-72.5
40
0.5
50
90
51
180
0
ARC
8
0
10
264.5
20
-89.5
40
0.5
50
180
51
270
0
ARC
8
0
10
281.5
20
-70.5
40
0.5
50
270
51
0
0
ARC
8
0
10
281.5
20
-53.5
40
0.5
50
0
51
90
0
ARC
8
0
10
264.5
20
-53.5
40
0.5
50
90
51
180
0
ARC
8
0
10
264.5
20
-70.5
40
0.5
50
180
51
270
0
ARC
8
0
10
262.5
20
-146.5
40
0.5
50
270
51
0
0
ARC
8
0
10
262.5
20
-129.5
40
0.5
50
0
51
90
0
ARC
8
0
10
245.5
20
-129.5
40
0.5
50
90
51
180
0
ARC
8
0
10
245.5
20
-146.5
40
0.5
50
180
51
270
0
ARC
8
0
10
262.5
20
-127.5
40
0.5
50
270
51
0
0
ARC
8
0
10
262.5
20
-110.5
40
0.5
50
0
51
90
0
ARC
8
0
10
245.5
20
-110.5
40
0.5
50
90
51
180
0
ARC
8
0
10
245.5
20
-127.5
40
0.5
50
180
51
270
0
ARC
8
0
10
262.5
20
-108.5
40
0.5
50
270
51
0
0
ARC
8
0
10
262.5
20
-91.5
40
0.5
50
0
51
90
0
ARC
8
0
10
245.5
20
-91.5
40
0.5
50
90
51
180
0
ARC
8
0
10
245.5
20
-108.5
40
0.5
50
180
51
270
0
ARC
8
0
10
262.5
20
-89.5
40
0.5
50
270
51
0
0
ARC
8
0
10
262.5
20
-72.5
40
0.5
50
0
51
90
0
ARC
8
0
10
245.5
20
-72.5
40
0.5
50
90
51
180
0
ARC
8
0
10
245.5
20
-89.5
40
0.5
50
180
51
270
0
ARC
8
0
10
262.5
20
-70.5
40
0.5
50
270
51
0
0
ARC
8
0
10
262.5
20
-53.5
40
0.5
50
0
51
90
0
ARC
8
0
10
245.5
20
-53.5
40
0.5
50
90
51
180
0
ARC
8
0
10
245.5
20
-70.5
40
0.5
50
180
51
270
0
LINE
8
0
10
91
20
-86.5
11
109
21
-86.5
0
LINE
8
0
10
109
20
-86.5
11
109
21
-52.5
0
LINE
8
0
10
91
20
-52.5
11
91
21
-86.5
0
ENDSEC
0
EOF