0
SECTION
2
HEADER
9
$INSUNITS
70
4
0
ENDSEC
0
SECTION
2
TABLES
0
TABLE
2
LTYPE
0
LTYPE
72
65
70
64
2
CONTINUOUS
3
______
73
0
40
0
0
ENDTAB
0
TABLE
2
LAYER
0
ENDTAB
0
ENDSEC
0
SECTION
2
ENTITIES
0
LINE
8
0
10
25.75
20
-124.75
11
124.25
21
-124.75
0
LINE
8
0
10
124.75
20
-124.25
11
124.75
21
-25.75
0
LINE
8
0
10
124.25
20
-25.25
11
25.75
21
-25.25
0
LINE
8
0
10
25.25
20
-25.75
11
25.25
21
-124.25
0
ARC
8
0
10
124.25
20
-124.25
40
0.5
50
270
51
0
0
ARC
8
0
10
124.25
20
-25.75
40
0.5
50
0
51
90
0
ARC
8
0
10
25.75
20
-25.75
40
0.5
50
90
51
180
0
ARC
8
0
10
25.75
20
-124.25
40
0.5
50
180
51
270
0
LINE
8
0
10
32
20
-115.005
11
38
21
-115.005
0
LINE
8
0
10
38
20
-115.005
11
38
21
-114.995
0
LINE
8
0
10
38
20
-114.995
11
32
21
-114.995
0
LINE
8
0
10
32
20
-114.995
11
32
21
-115.005
0
LINE
8
0
10
32
20
-95.005
11
38
21
-95.005
0
LINE
8
0
10
38
20
-95.005
11
38
21
-94.995
0
LINE
8
0
10
38
20
-94.995
11
32
21
-94.995
0
LINE
8
0
10
32
20
-94.995
11
32
21
-95.005
0
LINE
8
0
10
32
20
-75.005
11
38
21
-75.005
0
LINE
8
0
10
38
20
-75.005
11
38
21
-74.995
0
LINE
8
0
10
38
20
-74.995
11
32
21
-74.995
0
LINE
8
0
10
32
20
-74.995
11
32
21
-75.005
0
LINE
8
0
10
32
20
-55.005
11
38
21
-55.005
0
LINE
8
0
10
38
20
-55.005
11
38
21
-54.995
0
LINE
8
0
10
38
20
-54.995
11
32
21
-54.995
0
LINE
8
0
10
32
20
-54.995
11
32
21
-55.005
0
LINE
8
0
10
32
20
-35.005
11
38
21
-35.005
0
LINE
8
0
10
38
20
-35.005
11
38
21
-34.995
0
LINE
8
0
10
38
20
-34.995
11
32
21
-34.995
0
LINE
8
0
10
32
20
-34.995
11
32
21
-35.005
0
LINE
8
0
10
52
20
-115.005
11
58
21
-115.005
0
LINE
8
0
10
58
20
-115.005
11
58
21
-114.995
0
LINE
8
0
10
58
20
-114.995
11
52
21
-114.995
0
LINE
8
0
10
52
20
-114.995
11
52
21
-115.005
0
LINE
8
0
10
52
20
-95.005
11
58
21
-95.005
0
LINE
8
0
10
58
20
-95.005
11
58
21
-94.995
0
LINE
8
0
10
58
20
-94.995
11
52
21
-94.995
0
LINE
8
0
10
52
20
-94.995
11
52
21
-95.005
0
LINE
8
0
10
52
20
-75.005
11
58
21
-75.005
0
LINE
8
0
10
58
20
-75.005
11
58
21
-74.995
0
LINE
8
0
10
58
20
-74.995
11
52
21
-74.995
0
LINE
8
0
10
52
20
-74.995
11
52
21
-75.005
0
LINE
8
0
10
52
20
-55.005
11
58
21
-55.005
0
LINE
8
0
10
58
20
-55.005
11
58
21
-54.995
0
LINE
8
0
10
58
20
-54.995
11
52
21
-54.995
0
LINE
8
0
10
52
20
-54.995
11
52
21
-55.005
0
LINE
8
0
10
52
20
-35.005
11
58
21
-35.005
0
LINE
8
0
10
58
20
-35.005
11
58
21
-34.995
0
LINE
8
0
10
58
20
-34.995
11
52
21
-34.995
0
LINE
8
0
10
52
20
-34.995
11
52
21
-35.005
0
LINE
8
0
10
72
20
-115.005
11
78
21
-115.005
0
LINE
8
0
10
78
20
-115.005
11
78
21
-114.995
0
LINE
8
0
10
78
20
-114.995
11
72
21
-114.995
0
LINE
8
0
10
72
20
-114.995
11
72
21
-115.005
0
LINE
8
0
10
72
20
-95.005
11
78
21
-95.005
0
LINE
8
0
10
78
20
-95.005
11
78
21
-94.995
0
LINE
8
0
10
78
20
-94.995
11
72
21
-94.995
0
LINE
8
0
10
72
20
-94.995
11
72
21
-95.005
0
LINE
8
0
10
72
20
-75.005
11
78
21
-75.005
0
LINE
8
0
10
78
20
-75.005
11
78
21
-74.995
0
LINE
8
0
10
78
20
-74.995
11
72
21
-74.995
0
LINE
8
0
10
72
20
-74.995
11
72
21
-75.005
0
LINE
8
0
10
72
20
-55.005
11
78
21
-55.005
0
LINE
8
0
10
78
20
-55.005
11
78
21
-54.995
0
LINE
8
0
10
78
20
-54.995
11
72
21
-54.995
0
LINE
8
0
10
72
20
-54.995
11
72
21
-55.005
0
LINE
8
0
10
72
20
-35.005
11
78
21
-35.005
0
LINE
8
0
10
78
20
-35.005
11
78
21
-34.995
0
LINE
8
0
10
78
20
-34.995
11
72
21
-34.995
0
LINE
8
0
10
72
20
-34.995
11
72
21
-35.005
0
LINE
8
0
10
34.995
20
-117
11
35.005
21
-117
0
LINE
8
0
10
35.005
20
-117
11
35.005
21
-113
0
LINE
8
0
10
35.005
20
-113
11
34.995
21
-113
0
LINE
8
0
10
34.995
20
-113
11
34.995
21
-117
0
LINE
8
0
10
34.995
20
-97
11
35.005
21
-97
0
LINE
8
0
10
35.005
20
-97
11
35.005
21
-93
0
LINE
8
0
10
35.005
20
-93
11
34.995
21
-93
0
LINE
8
0
10
34.995
20
-93
11
34.995
21
-97
0
LINE
8
0
10
34.995
20
-77
11
35.005
21
-77
0
LINE
8
0
10
35.005
20
-77
11
35.005
21
-73
0
LINE
8
0
10
35.005
20
-73
11
34.995
21
-73
0
LINE
8
0
10
34.995
20
-73
11
34.995
21
-77
0
LINE
8
0
10
34.995
20
-57
11
35.005
21
-57
0
LINE
8
0
10
35.005
20
-57
11
35.005
21
-53
0
LINE
8
0
10
35.005
20
-53
11
34.995
21
-53
0
LINE
8
0
10
34.995
20
-53
11
34.995
21
-57
0
LINE
8
0
10
34.995
20
-37
11
35.005
21
-37
0
LINE
8
0
10
35.005
20
-37
11
35.005
21
-33
0
LINE
8
0
10
35.005
20
-33
11
34.995
21
-33
0
LINE
8
0
10
34.995
20
-33
11
34.995
21
-37
0
LINE
8
0
10
54.995
20
-117
11
55.005
21
-117
0
LINE
8
0
10
55.005
20
-117
11
55.005
21
-113
0
LINE
8
0
10
55.005
20
-113
11
54.995
21
-113
0
LINE
8
0
10
54.995
20
-113
11
54.995
21
-117
0
LINE
8
0
10
54.995
20
-97
11
55.005
21
-97
0
LINE
8
0
10
55.005
20
-97
11
55.005
21
-93
0
LINE
8
0
10
55.005
20
-93
11
54.995
21
-93
0
LINE
8
0
10
54.995
20
-93
11
54.995
21
-97
0
LINE
8
0
10
54.995
20
-77
11
55.005
21
-77
0
LINE
8
0
10
55.005
20
-77
11
55.005
21
-73
0
LINE
8
0
10
55.005
20
-73
11
54.995
21
-73
0
LINE
8
0
10
54.995
20
-73
11
54.995
21
-77
0
LINE
8
0
10
54.995
20
-57
11
55.005
21
-57
0
LINE
8
0
10
55.005
20
-57
11
55.005
21
-53
0
LINE
8
0
10
55.005
20
-53
11
54.995
21
-53
0
LINE
8
0
10
54.995
20
-53
11
54.995
21
-57
0
LINE
8
0
10
54.995
20
-37
11
55.005
21
-37
0
LINE
8
0
10
55.005
20
-37
11
55.005
21
-33
0
LINE
8
0
10
55.005
20
-33
11
54.995
21
-33
0
LINE
8
0
10
54.995
20
-33
11
54.995
21
-37
0
LINE
8
0
10
74.995
20
-117
11
75.005
21
-117
0
LINE
8
0
10
75.005
20
-117
11
75.005
21
-113
0
LINE
8
0
10
75.005
20
-113
11
74.995
21
-113
0
LINE
8
0
10
74.995
20
-113
11
74.995
21
-117
0
LINE
8
0
10
74.995
20
-97
11
75.005
21
-97
0
LINE
8
0
10
75.005
20
-97
11
75.005
21
-93
0
LINE
8
0
10
75.005
20
-93
11
74.995
21
-93
0
LINE
8
0
10
74.995
20
-93
11
74.995
21
-97
0
LINE
8
0
10
74.995
20
-77
11
75.005
21
-77
0
LINE
8
0
10
75.005
20
-77
11
75.005
21
-73
0
LINE
8
0
10
75.005
20
-73
11
74.995
21
-73
0
LINE
8
0
10
74.995
20
-73
11
74.995
21
-77
0
LINE
8
0
10
74.995
20
-57
11
75.005
21
-57
0
LINE
8
0
10
75.005
20
-57
11
75.005
21
-53
0
LINE
8
0
10
75.005
20
-53
11
74.995
21
-53
0
LINE
8
0
10
74.995
20
-53
11
74.995
21
-57
0
LINE
8
0
10
74.995
20
-37
11
75.005
21
-37
0
LINE
8
0
10
75.005
20
-37
11
75.005
21
-33
0
LINE
8
0
10
75.005
20
-33
11
74.995
21
-33
0
LINE
8
0
10
74.995
20
-33
11
74.995
21
-37
0
LINE
8
0
10
25
20
-125
11
85
21
-125
0
LINE
8
0
10
45
20
-125
11
45
21
-25
0
LINE
8
0
10
25
20
-105
11
85
21
-105
0
LINE
8
0
10
25
20
-125
11
25
21
-25
0
LINE
8
0
10
25
20
-85
11
85
21
-85
0
LINE
8
0
10
25
20
-65
11
85
21
-65
0
LINE
8
0
10
25
20
-45
11
85
21
-45
0
LINE
8
0
10
25
20
-25
11
85
21
-25
0
LINE
8
0
10
65
20
-125
11
65
21
-25
0
LINE
8
0
10
85
20
-125
11
85
21
-25
0
ENDSEC
0
EOF