<svg width="95mm" height="95mm" viewBox="0 0 95 95" xmlns="http://www.w3.org/2000/svg"><g id="svgGroup" stroke-linecap="round" fill-rule="evenodd" font-size="9pt" stroke="#000" stroke-width="0.25mm" fill="none" style="stroke:#000;stroke-width:0.25mm;fill:none"><path d="M 0 95 L 95 95 L 95 0 L 0 0 L 0 95 Z M 56.5 0 L 56.5 34 L 38.5 34 L 38.5 0 M 1 94.5 L 18 94.5 A 0.5 0.5 0 0 0 18.5 94 L 18.5 77 A 0.5 0.5 0 0 0 18 76.5 L 1 76.5 A 0.5 0.5 0 0 0 0.5 77 L 0.5 94 A 0.5 0.5 0 0 0 1 94.5 Z M 1 75.5 L 18 75.5 A 0.5 0.5 0 0 0 18.5 75 L 18.5 58 A 0.5 0.5 0 0 0 18 57.5 L 1 57.5 A 0.5 0.5 0 0 0 0.5 58 L 0.5 75 A 0.5 0.5 0 0 0 1 75.5 Z M 1 56.5 L 18 56.5 A 0.5 0.5 0 0 0 18.5 56 L 18.5 39 A 0.5 0.5 0 0 0 18 38.5 L 1 38.5 A 0.5 0.5 0 0 0 0.5 39 L 0.5 56 A 0.5 0.5 0 0 0 1 56.5 Z M 1 37.5 L 18 37.5 A 0.5 0.5 0 0 0 18.5 37 L 18.5 20 A 0.5 0.5 0 0 0 18 19.5 L 1 19.5 A 0.5 0.5 0 0 0 0.5 20 L 0.5 37 A 0.5 0.5 0 0 0 1 37.5 Z M 1 18.5 L 18 18.5 A 0.5 0.5 0 0 0 18.5 18 L 18.5 1 A 0.5 0.5 0 0 0 18 0.5 L 1 0.5 A 0.5 0.5 0 0 0 0.5 1 L 0.5 18 A 0.5 0.5 0 0 0 1 18.5 Z M 20 94.5 L 37 94.5 A 0.5 0.5 0 0 0 37.5 94 L 37.5 77 A 0.5 0.5 0 0 0 37 76.5 L 20 76.5 A 0.5 0.5 0 0 0 19.5 77 L 19.5 94 A 0.5 0.5 0 0 0 20 94.5 Z M 20 75.5 L 37 75.5 A 0.5 0.5 0 0 0 37.5 75 L 37.5 58 A 0.5 0.5 0 0 0 37 57.5 L 20 57.5 A 0.5 0.5 0 0 0 19.5 58 L 19.5 75 A 0.5 0.5 0 0 0 20 75.5 Z M 20 56.5 L 37 56.5 A 0.5 0.5 0 0 0 37.5 56 L 37.5 39 A 0.5 0.5 0 0 0 37 38.5 L 20 38.5 A 0.5 0.5 0 0 0 19.5 39 L 19.5 56 A 0.5 0.5 0 0 0 20 56.5 Z M 20 37.5 L 37 37.5 A 0.5 0.5 0 0 0 37.5 37 L 37.5 20 A 0.5 0.5 0 0 0 37 19.5 L 20 19.5 A 0.5 0.5 0 0 0 19.5 20 L 19.5 37 A 0.5 0.5 0 0 0 20 37.5 Z M 20 18.5 L 37 18.5 A 0.5 0.5 0 0 0 37.5 18 L 37.5 1 A 0.5 0.5 0 0 0 37 0.5 L 20 0.5 A 0.5 0.5 0 0 0 19.5 1 L 19.5 18 A 0.5 0.5 0 0 0 20 18.5 Z M 6.5 66.505 L 12.5 66.505 L 12.5 66.495 L 6.5 66.495 L 6.5 66.505 Z M 6.5 47.505 L 12.5 47.505 L 12.5 47.495 L 6.5 47.495 L 6.5 47.505 Z M 6.5 28.505 L 12.5 28.505 L 12.5 28.495 L 6.5 28.495 L 6.5 28.505 Z M 25.5 66.505 L 31.5 66.505 L 31.5 66.495 L 25.5 66.495 L 25.5 66.505 Z M 25.5 47.505 L 31.5 47.505 L 31.5 47.495 L 25.5 47.495 L 25.5 47.505 Z M 25.5 28.505 L 31.5 28.505 L 31.5 28.495 L 25.5 28.495 L 25.5 28.505 Z M 44.5 66.505 L 50.5 66.505 L 50.5 66.495 L 44.5 66.495 L 44.5 66.505 Z M 44.5 47.505 L 50.5 47.505 L 50.5 47.495 L 44.5 47.495 L 44.5 47.505 Z M 44.5 28.505 L 50.5 28.505 L 50.5 28.495 L 44.5 28.495 L 44.5 28.505 Z M 63.5 66.505 L 69.5 66.505 L 69.5 66.495 L 63.5 66.495 L 63.5 66.505 Z M 63.5 47.505 L 69.5 47.505 L 69.5 47.495 L 63.5 47.495 L 63.5 47.505 Z M 63.5 28.505 L 69.5 28.505 L 69.5 28.495 L 63.5 28.495 L 63.5 28.505 Z M 82.5 66.505 L 88.5 66.505 L 88.5 66.495 L 82.5 66.495 L 82.5 66.505 Z M 82.5 47.505 L 88.5 47.505 L 88.5 47.495 L 82.5 47.495 L 82.5 47.505 Z M 82.5 28.505 L 88.5 28.505 L 88.5 28.495 L 82.5 28.495 L 82.5 28.505 Z M 6.5 9.505 L 12.5 9.505 L 12.5 9.495 L 6.5 9.495 L 6.5 9.505 Z M 25.5 9.505 L 31.5 9.505 L 31.5 9.495 L 25.5 9.495 L 25.5 9.505 Z M 44.5 9.505 L 50.5 9.505 L 50.5 9.495 L 44.5 9.495 L 44.5 9.505 Z M 63.5 9.505 L 69.5 9.505 L 69.5 9.495 L 63.5 9.495 L 63.5 9.505 Z M 82.5 9.505 L 88.5 9.505 L 88.5 9.495 L 82.5 9.495 L 82.5 9.505 Z M 6.5 85.505 L 12.5 85.505 L 12.5 85.495 L 6.5 85.495 L 6.5 85.505 Z M 25.5 85.505 L 31.5 85.505 L 31.5 85.495 L 25.5 85.495 L 25.5 85.505 Z M 44.5 85.505 L 50.5 85.505 L 50.5 85.495 L 44.5 85.495 L 44.5 85.505 Z M 63.5 85.505 L 69.5 85.505 L 69.5 85.495 L 63.5 85.495 L 63.5 85.505 Z M 82.5 85.505 L 88.5 85.505 L 88.5 85.495 L 82.5 85.495 L 82.5 85.505 Z M 28.495 87.5 L 28.505 87.5 L 28.505 83.5 L 28.495 83.5 L 28.495 87.5 Z M 28.495 68.5 L 28.505 68.5 L 28.505 64.5 L 28.495 64.5 L 28.495 68.5 Z M 28.495 49.5 L 28.505 49.5 L 28.505 45.5 L 28.495 45.5 L 28.495 49.5 Z M 28.495 30.5 L 28.505 30.5 L 28.505 26.5 L 28.495 26.5 L 28.495 30.5 Z M 28.495 11.5 L 28.505 11.5 L 28.505 7.5 L 28.495 7.5 L 28.495 11.5 Z M 47.495 87.5 L 47.505 87.5 L 47.505 83.5 L 47.495 83.5 L 47.495 87.5 Z M 47.495 68.5 L 47.505 68.5 L 47.505 64.5 L 47.495 64.5 L 47.495 68.5 Z M 47.495 49.5 L 47.505 49.5 L 47.505 45.5 L 47.495 45.5 L 47.495 49.5 Z M 47.495 30.5 L 47.505 30.5 L 47.505 26.5 L 47.495 26.5 L 47.495 30.5 Z M 47.495 11.5 L 47.505 11.5 L 47.505 7.5 L 47.495 7.5 L 47.495 11.5 Z M 66.495 87.5 L 66.505 87.5 L 66.505 83.5 L 66.495 83.5 L 66.495 87.5 Z M 66.495 68.5 L 66.505 68.5 L 66.505 64.5 L 66.495 64.5 L 66.495 68.5 Z M 66.495 49.5 L 66.505 49.5 L 66.505 45.5 L 66.495 45.5 L 66.495 49.5 Z M 66.495 30.5 L 66.505 30.5 L 66.505 26.5 L 66.495 26.5 L 66.495 30.5 Z M 66.495 11.5 L 66.505 11.5 L 66.505 7.5 L 66.495 7.5 L 66.495 11.5 Z M 9.495 87.5 L 9.505 87.5 L 9.505 83.5 L 9.495 83.5 L 9.495 87.5 Z M 9.495 68.5 L 9.505 68.5 L 9.505 64.5 L 9.495 64.5 L 9.495 68.5 Z M 9.495 49.5 L 9.505 49.5 L 9.505 45.5 L 9.495 45.5 L 9.495 49.5 Z M 9.495 30.5 L 9.505 30.5 L 9.505 26.5 L 9.495 26.5 L 9.495 30.5 Z M 9.495 11.5 L 9.505 11.5 L 9.505 7.5 L 9.495 7.5 L 9.495 11.5 Z M 85.495 87.5 L 85.505 87.5 L 85.505 83.5 L 85.495 83.5 L 85.495 87.5 Z M 85.495 68.5 L 85.505 68.5 L 85.505 64.5 L 85.495 64.5 L 85.495 68.5 Z M 85.495 49.5 L 85.505 49.5 L 85.505 45.5 L 85.495 45.5 L 85.495 49.5 Z M 85.495 30.5 L 85.505 30.5 L 85.505 26.5 L 85.495 26.5 L 85.495 30.5 Z M 85.495 11.5 L 85.505 11.5 L 85.505 7.5 L 85.495 7.5 L 85.495 11.5 Z M 95 94.5 A 0.5 0.5 0 0 1 94.5 95 M 94.5 0 A 0.5 0.5 0 0 1 95 0.5 M 0 0.5 A 0.5 0.5 0 0 1 0.5 0 M 0.5 95 A 0.5 0.5 0 0 1 0 94.5 M 19 95 19 0 M 0 76 95 76 M 0 57 95 57 M 0 38 95 38 M 0 19 95 19 M 38 95 38 0 M 57 95 57 0 M 76 95 76 0" vector-effect="non-scaling-stroke"/></g></svg>