<svg width="99.75mm" height="100mm" viewBox="0 0 99.75 100" xmlns="http://www.w3.org/2000/svg"><g id="svgGroup" stroke-linecap="round" fill-rule="evenodd" font-size="9pt" stroke="#000" stroke-width="0.25mm" fill="none" style="stroke:#000;stroke-width:0.25mm;fill:none"><path d="M 0.75 99.75 L 99.25 99.75 A 0.5 0.5 0 0 0 99.75 99.25 L 99.75 0.75 A 0.5 0.5 0 0 0 99.25 0.25 L 0.75 0.25 A 0.5 0.5 0 0 0 0.25 0.75 L 0.25 99.25 A 0.5 0.5 0 0 0 0.75 99.75 Z M 0 100 L 60 100 L 60 0 L 0 0 L 0 100 Z M 7 90.005 L 13 90.005 L 13 89.995 L 7 89.995 L 7 90.005 Z M 7 70.005 L 13 70.005 L 13 69.995 L 7 69.995 L 7 70.005 Z M 7 50.005 L 13 50.005 L 13 49.995 L 7 49.995 L 7 50.005 Z M 27 90.005 L 33 90.005 L 33 89.995 L 27 89.995 L 27 90.005 Z M 27 70.005 L 33 70.005 L 33 69.995 L 27 69.995 L 27 70.005 Z M 27 50.005 L 33 50.005 L 33 49.995 L 27 49.995 L 27 50.005 Z M 47 90.005 L 53 90.005 L 53 89.995 L 47 89.995 L 47 90.005 Z M 47 70.005 L 53 70.005 L 53 69.995 L 47 69.995 L 47 70.005 Z M 47 50.005 L 53 50.005 L 53 49.995 L 47 49.995 L 47 50.005 Z M 7 30.005 L 13 30.005 L 13 29.995 L 7 29.995 L 7 30.005 Z M 7 10.005 L 13 10.005 L 13 9.995 L 7 9.995 L 7 10.005 Z M 27 30.005 L 33 30.005 L 33 29.995 L 27 29.995 L 27 30.005 Z M 27 10.005 L 33 10.005 L 33 9.995 L 27 9.995 L 27 10.005 Z M 47 30.005 L 53 30.005 L 53 29.995 L 47 29.995 L 47 30.005 Z M 47 10.005 L 53 10.005 L 53 9.995 L 47 9.995 L 47 10.005 Z M 49.995 92 L 50.005 92 L 50.005 88 L 49.995 88 L 49.995 92 Z M 49.995 72 L 50.005 72 L 50.005 68 L 49.995 68 L 49.995 72 Z M 49.995 52 L 50.005 52 L 50.005 48 L 49.995 48 L 49.995 52 Z M 49.995 32 L 50.005 32 L 50.005 28 L 49.995 28 L 49.995 32 Z M 49.995 12 L 50.005 12 L 50.005 8 L 49.995 8 L 49.995 12 Z M 9.995 92 L 10.005 92 L 10.005 88 L 9.995 88 L 9.995 92 Z M 9.995 72 L 10.005 72 L 10.005 68 L 9.995 68 L 9.995 72 Z M 9.995 52 L 10.005 52 L 10.005 48 L 9.995 48 L 9.995 52 Z M 9.995 32 L 10.005 32 L 10.005 28 L 9.995 28 L 9.995 32 Z M 9.995 12 L 10.005 12 L 10.005 8 L 9.995 8 L 9.995 12 Z M 29.995 92 L 30.005 92 L 30.005 88 L 29.995 88 L 29.995 92 Z M 29.995 72 L 30.005 72 L 30.005 68 L 29.995 68 L 29.995 72 Z M 29.995 52 L 30.005 52 L 30.005 48 L 29.995 48 L 29.995 52 Z M 29.995 32 L 30.005 32 L 30.005 28 L 29.995 28 L 29.995 32 Z M 29.995 12 L 30.005 12 L 30.005 8 L 29.995 8 L 29.995 12 Z M 20 100 20 0 M 0 80 60 80 M 0 60 60 60 M 0 40 60 40 M 0 20 60 20 M 40 100 40 0" vector-effect="non-scaling-stroke"/></g></svg>